<svg width="1280" height="720" viewBox="0 0 1280 720" fill="none" xmlns="http://www.w3.org/2000/svg">
<g clip-path="url(#clip0_1_3)">
<mask id="mask0_1_3" style="mask-type:luminance" maskUnits="userSpaceOnUse" x="-576" y="140" width="1986" height="581">
<path d="M-576 140.222H1410V720.001H-576V140.222Z" fill="white"/>
</mask>
<g mask="url(#mask0_1_3)">
<path d="M-666.764 197.383C-654.595 199.413 -580.563 195.356 -576 197.383C-571.437 199.413 -524.787 196.799 -524.787 196.799L-465.966 213.61L-443.656 223.754C-443.656 223.754 -403.092 217.668 -397.006 223.754C-390.921 229.838 -362.526 213.61 -362.526 213.61C-362.526 213.61 -343.972 211.381 -328.219 225.119C-312.465 238.857 -255.028 248.952 -255.028 248.952C-255.028 248.952 -230.69 262.294 -220.549 260.267C-210.406 258.239 -186.068 251.838 -179.983 248.952C-173.899 246.066 -157.673 258.658 -149.559 260.476C-141.447 262.294 -120.218 268.38 -106.492 270.409C-92.7682 272.438 -78.5706 270.409 -78.5706 270.409C-78.5706 270.409 -33.9491 259.953 -9.60669 248.952C-0.940613 245.036 37.7343 208.664 45.1554 213.61C51.2368 217.668 53.2653 211.584 59.353 213.61C65.4365 215.639 93.8339 225.783 99.9174 213.61C105.999 201.44 114.115 189.27 120.199 185.212C126.286 181.157 156.706 164.927 162.794 164.927C168.877 164.927 176.993 171.011 191.187 181.157C205.18 191.151 221.815 196.253 237.708 202.308C245.113 205.129 253.286 207.823 259.957 212.178C262.535 213.859 263.096 216.113 266.245 217.402C269.162 218.593 273.238 217.306 276.373 218.119C282.46 219.697 280.434 216.541 292.603 218.119C318.376 221.462 343.251 228.776 369.119 231.736C386.51 233.727 397.592 249.656 417.001 248.952C440.663 248.095 483.258 248.952 483.258 248.952C483.258 248.952 497.458 241.697 507.596 248.952C517.739 256.21 535.992 248.952 535.992 248.952C535.992 248.952 578.582 245.754 588.727 248.952C598.87 252.152 611.035 246.066 623.212 237.951C633.696 230.961 644.517 224.456 655.239 217.849C663.981 212.464 672.112 203.599 683.101 203.587C691.325 203.576 704.489 213.235 710.389 203.526C714.52 196.725 718.446 189.706 722.905 183.114C730.259 172.235 763.468 175.81 773.299 183.183C781.409 189.27 795.608 195.356 807.777 201.44C819.949 207.526 866.594 218.119 866.594 218.119L882.821 213.61C882.821 213.61 894.992 214.514 905.137 218.119C915.275 221.725 917.302 222.627 933.534 218.119C945.467 214.803 958.264 209.412 968.331 202.08C976.927 195.828 981.322 184.178 989.962 178.513C999.064 172.542 1005.45 181.858 1012.63 187.241C1020.75 193.327 1036.97 195.356 1047.11 195.356C1057.26 195.356 1079.56 193.327 1079.56 193.327C1079.56 193.327 1077.44 197.383 1116.03 199.413C1154.61 201.44 1191.12 217.668 1213.43 213.61C1235.74 209.555 1251.97 221.725 1268.19 205.497C1284.42 189.27 1304.7 164.927 1304.7 164.927H1331.07L1339.18 151.855L1371.63 140.588C1371.63 140.588 1393.61 156.816 1410 164.927C1426.4 173.044 1491.3 213.61 1491.3 213.61L1553.64 856.635L-536.956 950.827L-666.764 197.383Z" fill="#76CCB6"/>
</g>
</g>
<defs>
<clipPath id="clip0_1_3">
<rect width="1280" height="720" fill="white"/>
</clipPath>
</defs>
</svg>
