<svg width="401" height="281" viewBox="0 0 401 281" fill="none" xmlns="http://www.w3.org/2000/svg">
<g filter="url(#filter0_n_27_2)">
<rect width="400" height="280" transform="translate(0.741946 0.366821)" fill="url(#paint0_linear_27_2)"/>
<path d="M85.6101 189.002L80.3511 197.134L80.9924 195.389V197.826C80.9924 198.459 80.9924 198.998 80.9924 199.443C81.0095 199.887 81.0181 200.246 81.0181 200.52C81.0352 200.777 81.0523 200.973 81.0694 201.11C81.0865 201.247 81.0951 201.341 81.0951 201.392L82.8908 201.726L82.8395 202.726H76.9905L76.9135 201.726L78.7093 201.392C78.7264 201.341 78.7349 201.247 78.7349 201.11C78.752 200.973 78.7691 200.777 78.7862 200.52C78.8033 200.246 78.8119 199.887 78.8119 199.443C78.829 198.998 78.8375 198.459 78.8375 197.826V195.389L79.3506 197.134L74.2712 189.002L72.9885 188.642L73.0398 187.668H78.3501L78.4271 188.642L76.8622 189.002L80.6333 195.056H80.2741L83.8913 189.002L82.0956 188.642L82.1725 187.668H86.8415L86.8928 188.642L85.6101 189.002ZM91.69 202.932C90.5784 202.932 89.6035 202.692 88.7655 202.213C87.9446 201.734 87.3033 201.067 86.8415 200.212C86.3797 199.34 86.1488 198.348 86.1488 197.236C86.1488 196.073 86.4054 195.064 86.9185 194.209C87.4315 193.354 88.1156 192.687 88.9708 192.208C89.8259 191.729 90.7665 191.49 91.7927 191.49C92.853 191.49 93.7766 191.729 94.5633 192.208C95.3671 192.67 95.9828 193.329 96.4103 194.184C96.855 195.022 97.0773 196.005 97.0773 197.134C97.0773 198.211 96.8379 199.186 96.359 200.058C95.8802 200.931 95.2303 201.632 94.4093 202.162C93.6055 202.675 92.6991 202.932 91.69 202.932ZM91.9466 201.726C92.5281 201.726 93.0326 201.555 93.4602 201.213C93.8877 200.854 94.2212 200.366 94.4607 199.75C94.7001 199.118 94.8198 198.399 94.8198 197.596C94.8198 196.125 94.512 194.936 93.8963 194.03C93.2977 193.106 92.5024 192.644 91.5105 192.644C90.5869 192.644 89.843 193.029 89.2786 193.799C88.7313 194.568 88.4577 195.586 88.4577 196.852C88.4577 197.809 88.603 198.656 88.8938 199.391C89.2016 200.127 89.6206 200.7 90.1508 201.11C90.681 201.521 91.2796 201.726 91.9466 201.726ZM109.802 200.931L111.418 201.341V202.188L108.083 203.009L107.698 202.675L107.724 201.059L107.647 201.033C107.151 201.734 106.638 202.23 106.107 202.521C105.594 202.795 105.039 202.932 104.44 202.932C103.294 202.932 102.336 202.581 101.567 201.88C100.797 201.161 100.412 200.093 100.412 198.673V196.467C100.412 195.988 100.395 195.526 100.361 195.082C100.344 194.62 100.318 194.158 100.284 193.696L98.5396 193.337V192.49L102.029 191.541L102.49 191.952C102.456 192.482 102.43 193.046 102.413 193.645C102.396 194.243 102.388 194.868 102.388 195.518L102.362 198.34C102.362 199.4 102.61 200.161 103.106 200.623C103.602 201.067 104.235 201.29 105.004 201.29C105.466 201.29 105.936 201.17 106.415 200.931C106.894 200.691 107.313 200.281 107.672 199.699V196.723C107.672 196.347 107.664 195.979 107.647 195.62C107.647 195.244 107.638 194.893 107.621 194.568C107.604 194.226 107.578 193.936 107.544 193.696L105.671 193.337V192.49L109.289 191.541L109.673 191.9C109.656 192.379 109.639 192.807 109.622 193.183C109.622 193.559 109.622 193.936 109.622 194.312C109.622 194.671 109.622 195.082 109.622 195.543V197.365C109.622 198.305 109.639 199.066 109.673 199.648C109.725 200.212 109.767 200.64 109.802 200.931ZM112.906 202.726L112.829 201.803L114.419 201.418C114.436 201.332 114.453 201.179 114.471 200.956C114.488 200.734 114.496 200.435 114.496 200.058C114.513 199.682 114.522 199.22 114.522 198.673L114.548 196.672C114.548 196.108 114.522 195.552 114.471 195.005C114.436 194.457 114.394 194.021 114.342 193.696L112.7 193.337V192.49L116.138 191.541L116.497 191.9L116.395 194.055L116.472 194.081C116.985 193.089 117.506 192.422 118.036 192.08C118.567 191.721 119.063 191.541 119.524 191.541C119.918 191.541 120.243 191.644 120.499 191.849C120.773 192.037 120.91 192.328 120.91 192.721C120.91 193.132 120.764 193.448 120.474 193.671C120.2 193.876 119.849 193.978 119.422 193.978C119.114 193.978 118.815 193.91 118.524 193.773C118.25 193.636 117.985 193.448 117.729 193.209L118.19 193.363C117.865 193.568 117.558 193.859 117.267 194.235C116.976 194.594 116.711 195.047 116.472 195.595L116.497 197.98C116.514 198.408 116.531 198.853 116.549 199.314C116.566 199.776 116.583 200.195 116.6 200.571C116.617 200.931 116.634 201.213 116.651 201.418L118.883 201.751L118.832 202.726H112.906ZM127.503 187.668H132.941L133.018 188.642L131.428 189.027C131.428 189.096 131.419 189.25 131.402 189.489C131.385 189.728 131.368 190.105 131.351 190.618C131.351 191.131 131.351 191.858 131.351 192.798V196.749C131.368 197.826 131.539 198.699 131.864 199.366C132.206 200.033 132.668 200.52 133.249 200.828C133.848 201.119 134.54 201.264 135.327 201.264C136.08 201.264 136.729 201.11 137.277 200.802C137.841 200.477 138.277 199.973 138.585 199.289C138.893 198.605 139.047 197.698 139.047 196.569V193.26C139.047 192.49 139.038 191.815 139.021 191.233C139.004 190.635 138.987 190.147 138.97 189.771C138.953 189.378 138.927 189.13 138.893 189.027L137.097 188.642L137.174 187.668H142.151L142.228 188.642L140.663 189.027C140.663 189.079 140.654 189.241 140.637 189.515C140.62 189.788 140.603 190.224 140.586 190.823C140.586 191.404 140.586 192.217 140.586 193.26V196.698C140.586 198.134 140.347 199.314 139.868 200.238C139.389 201.161 138.73 201.846 137.892 202.29C137.071 202.735 136.131 202.957 135.071 202.957C133.206 202.957 131.744 202.444 130.684 201.418C129.64 200.375 129.119 198.921 129.119 197.057V192.798C129.119 191.858 129.11 191.131 129.093 190.618C129.076 190.088 129.059 189.703 129.042 189.463C129.042 189.224 129.033 189.079 129.016 189.027L127.451 188.642L127.503 187.668ZM144.075 202.726L144.024 201.777L145.691 201.418C145.725 201.247 145.751 200.965 145.768 200.571C145.785 200.178 145.794 199.656 145.794 199.007C145.811 198.357 145.819 197.561 145.819 196.621V193.414C145.819 192.764 145.811 192.097 145.794 191.413C145.794 190.729 145.785 190.088 145.768 189.489C145.768 188.873 145.76 188.352 145.742 187.924C145.742 187.479 145.734 187.189 145.717 187.052L143.818 186.795L143.767 185.974L147.436 184.923L147.923 185.282C147.906 186 147.889 186.718 147.872 187.437C147.855 188.155 147.838 188.95 147.82 189.822C147.82 190.695 147.82 191.747 147.82 192.978L147.795 197.108C147.795 198.117 147.803 199.032 147.82 199.853C147.855 200.657 147.889 201.179 147.923 201.418L149.591 201.777L149.539 202.726H144.075ZM159.108 201.136C158.783 201.7 158.338 202.145 157.774 202.47C157.21 202.778 156.62 202.932 156.004 202.932C154.961 202.932 154.106 202.615 153.439 201.982C152.772 201.35 152.438 200.4 152.438 199.135L152.515 193.004H150.719V192.465L154.029 189.463H154.516L154.465 192.414L154.439 198.724C154.439 199.614 154.627 200.272 155.003 200.7C155.397 201.127 155.944 201.341 156.645 201.341C157.039 201.341 157.398 201.264 157.723 201.11C158.065 200.956 158.373 200.751 158.646 200.494L159.108 201.136ZM153.541 193.004V191.721H158.338V193.004H153.541ZM159.647 202.726L159.595 201.777L161.314 201.418C161.331 201.35 161.34 201.23 161.34 201.059C161.357 200.888 161.374 200.614 161.391 200.238C161.408 199.862 161.417 199.34 161.417 198.673V196.98C161.417 196.279 161.4 195.637 161.366 195.056C161.331 194.474 161.289 194.021 161.237 193.696L159.519 193.337V192.49L163.161 191.541L163.546 191.9C163.495 192.431 163.452 192.952 163.418 193.465C163.401 193.978 163.392 194.577 163.392 195.261V198.493C163.392 199.28 163.401 199.93 163.418 200.443C163.452 200.956 163.486 201.281 163.52 201.418L165.239 201.777L165.188 202.726H159.647ZM162.417 188.642C161.99 188.642 161.614 188.497 161.289 188.206C160.981 187.916 160.827 187.556 160.827 187.129C160.827 186.701 160.981 186.342 161.289 186.051C161.614 185.761 161.99 185.615 162.417 185.615C162.862 185.615 163.23 185.761 163.52 186.051C163.811 186.342 163.957 186.701 163.957 187.129C163.957 187.556 163.811 187.916 163.52 188.206C163.23 188.497 162.862 188.642 162.417 188.642ZM166.65 202.726L166.599 201.803L168.189 201.418C168.207 201.298 168.215 201.144 168.215 200.956C168.232 200.768 168.249 200.494 168.266 200.135C168.284 199.776 168.292 199.289 168.292 198.673L168.318 196.672C168.335 196.313 168.326 195.945 168.292 195.569C168.275 195.193 168.249 194.842 168.215 194.517C168.181 194.175 168.147 193.901 168.113 193.696L166.471 193.337V192.49L169.908 191.541L170.344 191.952L170.216 193.337L170.293 193.363C170.823 192.696 171.371 192.217 171.935 191.926C172.516 191.635 173.106 191.49 173.705 191.49C174.304 191.49 174.885 191.652 175.449 191.977C176.014 192.302 176.476 192.798 176.835 193.465C177.211 194.132 177.399 194.987 177.399 196.031L177.425 198.75C177.425 199.366 177.433 199.922 177.45 200.417C177.485 200.896 177.527 201.23 177.579 201.418L179.118 201.803L179.041 202.726H174.039L173.962 201.803L175.373 201.418C175.39 201.281 175.407 201.11 175.424 200.905C175.441 200.7 175.449 200.443 175.449 200.135C175.467 199.81 175.475 199.408 175.475 198.93L175.449 196.108C175.449 195.372 175.33 194.782 175.09 194.338C174.868 193.893 174.569 193.568 174.192 193.363C173.816 193.157 173.414 193.055 172.987 193.055C172.457 193.055 171.961 193.183 171.499 193.44C171.037 193.696 170.627 194.098 170.267 194.645V198.493C170.267 199.28 170.276 199.922 170.293 200.417C170.327 200.896 170.361 201.23 170.396 201.418L171.909 201.803L171.832 202.726H166.65ZM181.119 202.726L181.042 201.803L182.504 201.418C182.521 201.281 182.53 201.11 182.53 200.905C182.547 200.7 182.564 200.443 182.581 200.135C182.598 199.81 182.607 199.408 182.607 198.93V196.133C182.607 195.381 182.479 194.782 182.222 194.338C181.966 193.893 181.641 193.568 181.247 193.363C180.871 193.157 180.486 193.055 180.093 193.055C179.511 193.055 178.973 193.2 178.477 193.491C177.981 193.782 177.536 194.226 177.143 194.825L176.655 193.876C177.254 193.055 177.887 192.456 178.554 192.08C179.238 191.687 179.956 191.49 180.708 191.49C181.427 191.49 182.077 191.661 182.658 192.003C183.24 192.345 183.701 192.841 184.043 193.491C184.386 194.141 184.557 194.928 184.557 195.851V198.75C184.557 199.366 184.565 199.922 184.582 200.417C184.616 200.896 184.651 201.23 184.685 201.418L186.275 201.803L186.224 202.726H181.119ZM191.97 202.932C191.286 202.932 190.679 202.795 190.149 202.521C189.619 202.247 189.2 201.897 188.892 201.469C188.601 201.042 188.456 200.597 188.456 200.135C188.456 199.554 188.644 199.075 189.02 198.699C189.397 198.322 190.012 197.997 190.867 197.724L194.767 196.416V195.107C194.767 194.68 194.638 194.295 194.382 193.953C194.125 193.594 193.783 193.311 193.356 193.106C192.928 192.901 192.449 192.798 191.919 192.798C191.492 192.798 191.201 192.892 191.047 193.081C190.893 193.252 190.799 193.602 190.765 194.132L190.713 195.21C190.098 195.347 189.576 195.329 189.149 195.158C188.721 194.97 188.507 194.671 188.507 194.261C188.507 193.97 188.627 193.679 188.866 193.388C189.123 193.098 189.456 192.824 189.867 192.567C190.277 192.294 190.722 192.063 191.201 191.875C191.68 191.687 192.15 191.558 192.612 191.49C193.877 191.49 194.886 191.823 195.639 192.49C196.409 193.157 196.802 194.03 196.819 195.107L196.768 199.417C196.768 199.742 196.776 200.058 196.793 200.366C196.828 200.674 196.87 200.905 196.922 201.059L198.563 201.367V202.162L197.306 202.624C197.067 202.709 196.845 202.778 196.639 202.829C196.434 202.897 196.263 202.932 196.126 202.932C195.596 202.932 195.254 202.632 195.1 202.034L194.818 201.033H195.203C194.638 201.666 194.091 202.145 193.561 202.47C193.048 202.778 192.518 202.932 191.97 202.932ZM192.663 201.418C193.056 201.418 193.424 201.332 193.766 201.161C194.108 200.973 194.442 200.691 194.767 200.315V197.621L191.894 198.391C191.483 198.493 191.184 198.656 190.996 198.878C190.825 199.101 190.739 199.383 190.739 199.725C190.739 200.152 190.927 200.546 191.303 200.905C191.697 201.247 192.15 201.418 192.663 201.418ZM207.953 201.136C207.628 201.7 207.183 202.145 206.619 202.47C206.054 202.778 205.464 202.932 204.849 202.932C203.805 202.932 202.95 202.615 202.283 201.982C201.616 201.35 201.283 200.4 201.283 199.135L201.36 193.004H199.564V192.465L202.873 189.463H203.361L203.309 192.414L203.284 198.724C203.284 199.614 203.472 200.272 203.848 200.7C204.242 201.127 204.789 201.341 205.49 201.341C205.883 201.341 206.243 201.264 206.567 201.11C206.91 200.956 207.217 200.751 207.491 200.494L207.953 201.136ZM202.386 193.004V191.721H207.183V193.004H202.386ZM213.981 202.932C212.989 202.932 212.092 202.709 211.288 202.265C210.501 201.82 209.868 201.187 209.389 200.366C208.928 199.528 208.697 198.545 208.697 197.416C208.697 196.202 208.945 195.15 209.441 194.261C209.937 193.371 210.587 192.687 211.39 192.208C212.194 191.712 213.058 191.473 213.981 191.49C215.315 191.507 216.359 191.952 217.111 192.824C217.864 193.696 218.24 194.928 218.24 196.518V196.98H210.364V195.851H216.547L216.265 196.185V195.646C216.265 194.654 216.042 193.893 215.598 193.363C215.153 192.833 214.546 192.567 213.776 192.567C213.297 192.567 212.836 192.713 212.391 193.004C211.946 193.277 211.587 193.705 211.313 194.286C211.04 194.851 210.903 195.569 210.903 196.441V196.749C210.903 198.151 211.245 199.246 211.929 200.033C212.63 200.819 213.528 201.213 214.623 201.213C215.221 201.213 215.76 201.093 216.239 200.854C216.718 200.614 217.18 200.229 217.624 199.699L218.266 200.289C217.787 201.179 217.18 201.846 216.444 202.29C215.709 202.718 214.888 202.932 213.981 202.932ZM225.474 202.726L225.423 201.751L226.885 201.392C226.902 201.324 226.911 201.153 226.911 200.879C226.928 200.606 226.937 200.212 226.937 199.699C226.954 199.169 226.962 198.519 226.962 197.749L226.988 192.337C226.988 191.652 226.979 191.08 226.962 190.618C226.962 190.139 226.954 189.763 226.937 189.489C226.937 189.215 226.928 189.053 226.911 189.002L225.32 188.642L225.397 187.668H233.504C233.76 187.668 234.017 187.668 234.273 187.668C234.547 187.65 234.829 187.633 235.12 187.616C235.428 187.599 235.744 187.582 236.069 187.565L236.608 190.951L235.428 191.131L234.556 188.976C234.436 188.942 234.291 188.925 234.12 188.925C233.966 188.908 233.795 188.899 233.606 188.899H230.759C230.502 188.899 230.212 188.908 229.887 188.925C229.579 188.925 229.331 188.942 229.143 188.976C229.143 189.044 229.134 189.173 229.117 189.361C229.117 189.549 229.117 189.788 229.117 190.079C229.117 190.37 229.117 190.695 229.117 191.054C229.117 191.396 229.117 191.772 229.117 192.183L229.143 197.775C229.143 198.579 229.143 199.237 229.143 199.75C229.16 200.264 229.177 200.648 229.194 200.905C229.211 201.161 229.228 201.324 229.245 201.392L231.323 201.7L231.272 202.726H225.474ZM233.632 197.673L233.299 195.825C233.196 195.791 233.034 195.766 232.811 195.749C232.606 195.731 232.358 195.723 232.067 195.723H229.912C229.741 195.723 229.545 195.731 229.322 195.749C229.117 195.749 228.869 195.757 228.578 195.774V194.363C228.784 194.38 228.997 194.397 229.22 194.415C229.459 194.432 229.69 194.44 229.912 194.44H232.067C232.409 194.44 232.674 194.432 232.863 194.415C233.068 194.38 233.213 194.355 233.299 194.338L233.632 192.593H234.735V197.673H233.632ZM237.737 202.726L237.66 201.803L239.25 201.418C239.267 201.332 239.285 201.179 239.302 200.956C239.319 200.734 239.327 200.435 239.327 200.058C239.344 199.682 239.353 199.22 239.353 198.673L239.379 196.672C239.379 196.108 239.353 195.552 239.302 195.005C239.267 194.457 239.225 194.021 239.173 193.696L237.531 193.337V192.49L240.969 191.541L241.328 191.9L241.226 194.055L241.303 194.081C241.816 193.089 242.337 192.422 242.867 192.08C243.398 191.721 243.894 191.541 244.355 191.541C244.749 191.541 245.074 191.644 245.33 191.849C245.604 192.037 245.741 192.328 245.741 192.721C245.741 193.132 245.595 193.448 245.305 193.671C245.031 193.876 244.68 193.978 244.253 193.978C243.945 193.978 243.646 193.91 243.355 193.773C243.081 193.636 242.816 193.448 242.56 193.209L243.021 193.363C242.696 193.568 242.389 193.859 242.098 194.235C241.807 194.594 241.542 195.047 241.303 195.595L241.328 197.98C241.345 198.408 241.362 198.853 241.38 199.314C241.397 199.776 241.414 200.195 241.431 200.571C241.448 200.931 241.465 201.213 241.482 201.418L243.714 201.751L243.663 202.726H237.737ZM252.026 202.932C251.034 202.932 250.136 202.709 249.332 202.265C248.545 201.82 247.913 201.187 247.434 200.366C246.972 199.528 246.741 198.545 246.741 197.416C246.741 196.202 246.989 195.15 247.485 194.261C247.981 193.371 248.631 192.687 249.435 192.208C250.239 191.712 251.102 191.473 252.026 191.49C253.36 191.507 254.403 191.952 255.156 192.824C255.908 193.696 256.284 194.928 256.284 196.518V196.98H248.409V195.851H254.591L254.309 196.185V195.646C254.309 194.654 254.087 193.893 253.642 193.363C253.197 192.833 252.59 192.567 251.821 192.567C251.342 192.567 250.88 192.713 250.435 193.004C249.991 193.277 249.632 193.705 249.358 194.286C249.084 194.851 248.947 195.569 248.947 196.441V196.749C248.947 198.151 249.289 199.246 249.974 200.033C250.675 200.819 251.573 201.213 252.667 201.213C253.266 201.213 253.805 201.093 254.283 200.854C254.762 200.614 255.224 200.229 255.669 199.699L256.31 200.289C255.831 201.179 255.224 201.846 254.489 202.29C253.753 202.718 252.932 202.932 252.026 202.932ZM263.57 202.932C262.578 202.932 261.68 202.709 260.876 202.265C260.09 201.82 259.457 201.187 258.978 200.366C258.516 199.528 258.285 198.545 258.285 197.416C258.285 196.202 258.533 195.15 259.029 194.261C259.525 193.371 260.175 192.687 260.979 192.208C261.783 191.712 262.647 191.473 263.57 191.49C264.904 191.507 265.947 191.952 266.7 192.824C267.452 193.696 267.829 194.928 267.829 196.518V196.98H259.953V195.851H266.135L265.853 196.185V195.646C265.853 194.654 265.631 193.893 265.186 193.363C264.742 192.833 264.134 192.567 263.365 192.567C262.886 192.567 262.424 192.713 261.98 193.004C261.535 193.277 261.176 193.705 260.902 194.286C260.628 194.851 260.492 195.569 260.492 196.441V196.749C260.492 198.151 260.834 199.246 261.518 200.033C262.219 200.819 263.117 201.213 264.211 201.213C264.81 201.213 265.349 201.093 265.828 200.854C266.306 200.614 266.768 200.229 267.213 199.699L267.854 200.289C267.375 201.179 266.768 201.846 266.033 202.29C265.297 202.718 264.476 202.932 263.57 202.932ZM286.633 199.058V193.311C286.633 192.302 286.624 191.499 286.607 190.9C286.59 190.284 286.573 189.831 286.556 189.54C286.539 189.232 286.522 189.053 286.504 189.002L284.76 188.642L284.837 187.668H289.711L289.788 188.642L288.198 189.002C288.198 189.053 288.181 189.232 288.146 189.54C288.129 189.831 288.112 190.284 288.095 190.9C288.078 191.499 288.069 192.302 288.069 193.311V199.417C288.069 199.947 288.069 200.503 288.069 201.084C288.069 201.649 288.078 202.23 288.095 202.829H286.941L277.5 190.13H278.064V197.006C278.064 198.032 278.073 198.861 278.09 199.494C278.107 200.11 278.124 200.563 278.141 200.854C278.176 201.144 278.201 201.324 278.218 201.392L279.963 201.751L279.886 202.726H274.96L274.883 201.751L276.448 201.392C276.465 201.324 276.482 201.144 276.5 200.854C276.534 200.563 276.559 200.11 276.576 199.494C276.594 198.861 276.602 198.032 276.602 197.006V192.619C276.602 191.849 276.594 191.216 276.576 190.72C276.559 190.224 276.542 189.84 276.525 189.566C276.508 189.292 276.482 189.104 276.448 189.002L274.883 188.642L274.96 187.668H278.475L287.095 199.058H286.633ZM297.382 202.932C296.27 202.932 295.295 202.692 294.457 202.213C293.636 201.734 292.995 201.067 292.533 200.212C292.071 199.34 291.84 198.348 291.84 197.236C291.84 196.073 292.097 195.064 292.61 194.209C293.123 193.354 293.807 192.687 294.662 192.208C295.517 191.729 296.458 191.49 297.484 191.49C298.545 191.49 299.468 191.729 300.255 192.208C301.059 192.67 301.674 193.329 302.102 194.184C302.547 195.022 302.769 196.005 302.769 197.134C302.769 198.211 302.53 199.186 302.051 200.058C301.572 200.931 300.922 201.632 300.101 202.162C299.297 202.675 298.391 202.932 297.382 202.932ZM297.638 201.726C298.22 201.726 298.724 201.555 299.152 201.213C299.579 200.854 299.913 200.366 300.152 199.75C300.392 199.118 300.511 198.399 300.511 197.596C300.511 196.125 300.204 194.936 299.588 194.03C298.989 193.106 298.194 192.644 297.202 192.644C296.279 192.644 295.535 193.029 294.97 193.799C294.423 194.568 294.149 195.586 294.149 196.852C294.149 197.809 294.295 198.656 294.585 199.391C294.893 200.127 295.312 200.7 295.842 201.11C296.373 201.521 296.971 201.726 297.638 201.726ZM312.671 201.136C312.346 201.7 311.902 202.145 311.337 202.47C310.773 202.778 310.183 202.932 309.567 202.932C308.524 202.932 307.669 202.615 307.002 201.982C306.335 201.35 306.001 200.4 306.001 199.135L306.078 193.004H304.283V192.465L307.592 189.463H308.079L308.028 192.414L308.002 198.724C308.002 199.614 308.19 200.272 308.567 200.7C308.96 201.127 309.507 201.341 310.209 201.341C310.602 201.341 310.961 201.264 311.286 201.11C311.628 200.956 311.936 200.751 312.21 200.494L312.671 201.136ZM307.104 193.004V191.721H311.902V193.004H307.104ZM318.7 202.932C317.708 202.932 316.81 202.709 316.006 202.265C315.22 201.82 314.587 201.187 314.108 200.366C313.646 199.528 313.415 198.545 313.415 197.416C313.415 196.202 313.663 195.15 314.159 194.261C314.655 193.371 315.305 192.687 316.109 192.208C316.913 191.712 317.776 191.473 318.7 191.49C320.034 191.507 321.077 191.952 321.83 192.824C322.582 193.696 322.958 194.928 322.958 196.518V196.98H315.083V195.851H321.265L320.983 196.185V195.646C320.983 194.654 320.761 193.893 320.316 193.363C319.871 192.833 319.264 192.567 318.495 192.567C318.016 192.567 317.554 192.713 317.109 193.004C316.665 193.277 316.306 193.705 316.032 194.286C315.758 194.851 315.621 195.569 315.621 196.441V196.749C315.621 198.151 315.964 199.246 316.648 200.033C317.349 200.819 318.247 201.213 319.341 201.213C319.94 201.213 320.479 201.093 320.957 200.854C321.436 200.614 321.898 200.229 322.343 199.699L322.984 200.289C322.505 201.179 321.898 201.846 321.163 202.29C320.427 202.718 319.606 202.932 318.7 202.932ZM328.91 202.932C328.277 202.932 327.645 202.863 327.012 202.726C326.379 202.572 325.84 202.376 325.396 202.136L325.267 199.391H326.524L327.037 201.238C327.636 201.649 328.32 201.854 329.09 201.854C329.671 201.854 330.141 201.717 330.501 201.444C330.86 201.153 331.039 200.768 331.039 200.289C331.039 199.845 330.877 199.46 330.552 199.135C330.227 198.793 329.594 198.425 328.654 198.032C327.439 197.502 326.584 196.997 326.088 196.518C325.592 196.022 325.344 195.389 325.344 194.62C325.344 194.004 325.524 193.465 325.883 193.004C326.259 192.525 326.772 192.157 327.422 191.9C328.072 191.627 328.825 191.49 329.68 191.49C330.159 191.49 330.646 191.533 331.142 191.618C331.638 191.704 332.048 191.815 332.373 191.952L332.656 194.62H331.45L330.834 192.875C330.663 192.773 330.458 192.696 330.218 192.644C329.979 192.576 329.722 192.542 329.449 192.542C328.85 192.542 328.371 192.687 328.012 192.978C327.653 193.252 327.473 193.611 327.473 194.055C327.473 194.568 327.67 194.987 328.064 195.312C328.457 195.62 329.15 196.005 330.141 196.467C331.27 196.98 332.057 197.484 332.502 197.98C332.946 198.476 333.169 199.075 333.169 199.776C333.169 200.7 332.767 201.461 331.963 202.059C331.159 202.641 330.141 202.932 328.91 202.932ZM117.613 231.957C116.878 231.957 116.108 231.863 115.304 231.675C114.5 231.487 113.851 231.247 113.355 230.957L113.226 227.647L114.329 227.545L115.048 229.828C115.458 230.102 115.911 230.315 116.407 230.469C116.903 230.606 117.434 230.675 117.998 230.675C118.853 230.675 119.529 230.469 120.025 230.059C120.538 229.648 120.794 229.093 120.794 228.391C120.794 227.793 120.615 227.297 120.255 226.903C119.896 226.493 119.426 226.142 118.845 225.852C118.28 225.561 117.673 225.27 117.023 224.979C116.39 224.689 115.783 224.364 115.202 224.005C114.637 223.628 114.176 223.175 113.816 222.645C113.457 222.098 113.278 221.422 113.278 220.618C113.278 219.78 113.509 219.053 113.97 218.438C114.432 217.805 115.073 217.309 115.894 216.95C116.732 216.591 117.682 216.411 118.742 216.411C119.187 216.411 119.614 216.437 120.025 216.488C120.452 216.522 120.846 216.582 121.205 216.668C121.564 216.753 121.889 216.864 122.18 217.001L122.385 220.208L121.282 220.31L120.563 218.155C120.033 217.813 119.332 217.642 118.46 217.642C117.587 217.642 116.886 217.856 116.356 218.284C115.843 218.694 115.586 219.25 115.586 219.951C115.586 220.567 115.766 221.08 116.125 221.49C116.501 221.901 116.972 222.26 117.536 222.568C118.118 222.876 118.725 223.175 119.358 223.466C120.007 223.757 120.615 224.082 121.179 224.441C121.76 224.8 122.231 225.244 122.59 225.775C122.966 226.288 123.154 226.929 123.154 227.699C123.154 228.52 122.915 229.255 122.436 229.905C121.974 230.538 121.324 231.042 120.486 231.418C119.648 231.778 118.691 231.957 117.613 231.957ZM124.924 231.726L124.873 230.803L126.464 230.418C126.498 230.23 126.524 229.948 126.541 229.571C126.558 229.178 126.566 228.656 126.566 228.007C126.583 227.357 126.592 226.561 126.592 225.621V222.414C126.592 221.833 126.583 221.208 126.566 220.541C126.566 219.874 126.558 219.233 126.541 218.617C126.541 217.984 126.532 217.437 126.515 216.975C126.515 216.514 126.506 216.206 126.489 216.052L124.591 215.795L124.54 214.974L128.157 213.923L128.644 214.282C128.627 214.812 128.61 215.342 128.593 215.872C128.576 216.402 128.559 216.975 128.542 217.591C128.542 218.19 128.533 218.874 128.516 219.643C128.516 220.413 128.516 221.302 128.516 222.311L128.593 222.337C129.192 221.687 129.773 221.217 130.337 220.926C130.919 220.635 131.552 220.49 132.236 220.49C132.869 220.49 133.459 220.652 134.006 220.977C134.57 221.302 135.023 221.798 135.366 222.465C135.725 223.115 135.904 223.953 135.904 224.979V227.75C135.904 228.366 135.921 228.922 135.956 229.417C135.99 229.896 136.024 230.23 136.058 230.418L137.649 230.803L137.597 231.726H132.441L132.364 230.803L133.852 230.418C133.869 230.281 133.886 230.11 133.903 229.905C133.92 229.7 133.929 229.443 133.929 229.135C133.946 228.81 133.955 228.408 133.955 227.93V225.159C133.955 224.424 133.826 223.834 133.57 223.389C133.33 222.927 133.014 222.594 132.621 222.388C132.227 222.166 131.808 222.055 131.364 222.055C130.816 222.055 130.295 222.2 129.799 222.491C129.303 222.765 128.884 223.149 128.542 223.645V227.493C128.542 228.28 128.55 228.93 128.567 229.443C128.601 229.956 128.636 230.281 128.67 230.418L130.235 230.803L130.183 231.726H124.924ZM143.267 231.932C142.583 231.932 141.976 231.795 141.445 231.521C140.915 231.247 140.496 230.897 140.188 230.469C139.898 230.042 139.752 229.597 139.752 229.135C139.752 228.554 139.94 228.075 140.317 227.699C140.693 227.322 141.309 226.997 142.164 226.724L146.063 225.416V224.107C146.063 223.68 145.935 223.295 145.678 222.953C145.422 222.594 145.08 222.311 144.652 222.106C144.225 221.901 143.746 221.798 143.216 221.798C142.788 221.798 142.497 221.892 142.343 222.081C142.189 222.252 142.095 222.602 142.061 223.132L142.01 224.21C141.394 224.347 140.873 224.329 140.445 224.158C140.017 223.97 139.804 223.671 139.804 223.261C139.804 222.97 139.923 222.679 140.163 222.388C140.419 222.098 140.753 221.824 141.163 221.567C141.574 221.294 142.018 221.063 142.497 220.875C142.976 220.687 143.446 220.558 143.908 220.49C145.174 220.49 146.183 220.823 146.935 221.49C147.705 222.157 148.098 223.03 148.115 224.107L148.064 228.417C148.064 228.742 148.073 229.058 148.09 229.366C148.124 229.674 148.167 229.905 148.218 230.059L149.86 230.367V231.162L148.603 231.624C148.363 231.709 148.141 231.778 147.936 231.829C147.731 231.897 147.56 231.932 147.423 231.932C146.893 231.932 146.551 231.632 146.397 231.034L146.114 230.033H146.499C145.935 230.666 145.388 231.145 144.857 231.47C144.344 231.778 143.814 231.932 143.267 231.932ZM143.96 230.418C144.353 230.418 144.721 230.332 145.063 230.161C145.405 229.973 145.738 229.691 146.063 229.315V226.621L143.19 227.391C142.779 227.493 142.48 227.656 142.292 227.878C142.121 228.101 142.035 228.383 142.035 228.725C142.035 229.152 142.224 229.546 142.6 229.905C142.993 230.247 143.446 230.418 143.96 230.418ZM151.245 231.726L151.168 230.803L152.759 230.418C152.776 230.332 152.793 230.179 152.81 229.956C152.827 229.734 152.836 229.435 152.836 229.058C152.853 228.682 152.861 228.22 152.861 227.673L152.887 225.672C152.887 225.108 152.861 224.552 152.81 224.005C152.776 223.457 152.733 223.021 152.682 222.696L151.04 222.337V221.49L154.478 220.541L154.837 220.9L154.734 223.055L154.811 223.081C155.324 222.089 155.846 221.422 156.376 221.08C156.906 220.721 157.402 220.541 157.864 220.541C158.257 220.541 158.582 220.644 158.839 220.849C159.112 221.037 159.249 221.328 159.249 221.721C159.249 222.132 159.104 222.448 158.813 222.671C158.539 222.876 158.189 222.978 157.761 222.978C157.453 222.978 157.154 222.91 156.863 222.773C156.59 222.636 156.325 222.448 156.068 222.209L156.53 222.363C156.205 222.568 155.897 222.859 155.606 223.235C155.316 223.594 155.05 224.047 154.811 224.595L154.837 226.98C154.854 227.408 154.871 227.853 154.888 228.314C154.905 228.776 154.922 229.195 154.939 229.571C154.956 229.931 154.974 230.213 154.991 230.418L157.223 230.751L157.171 231.726H151.245ZM160.429 231.726L160.378 230.777L162.097 230.418C162.114 230.35 162.122 230.23 162.122 230.059C162.139 229.888 162.157 229.614 162.174 229.238C162.191 228.862 162.199 228.34 162.199 227.673V225.98C162.199 225.279 162.182 224.637 162.148 224.056C162.114 223.474 162.071 223.021 162.02 222.696L160.301 222.337V221.49L163.944 220.541L164.329 220.9C164.277 221.431 164.235 221.952 164.2 222.465C164.183 222.978 164.175 223.577 164.175 224.261V227.493C164.175 228.28 164.183 228.93 164.2 229.443C164.235 229.956 164.269 230.281 164.303 230.418L166.022 230.777L165.97 231.726H160.429ZM163.2 217.642C162.772 217.642 162.396 217.497 162.071 217.206C161.763 216.916 161.609 216.556 161.609 216.129C161.609 215.701 161.763 215.342 162.071 215.051C162.396 214.761 162.772 214.615 163.2 214.615C163.644 214.615 164.012 214.761 164.303 215.051C164.594 215.342 164.739 215.701 164.739 216.129C164.739 216.556 164.594 216.916 164.303 217.206C164.012 217.497 163.644 217.642 163.2 217.642ZM167.407 231.726L167.356 230.803L168.946 230.418C168.963 230.298 168.972 230.136 168.972 229.931C168.989 229.725 169.006 229.443 169.023 229.084C169.04 228.725 169.049 228.255 169.049 227.673L169.075 225.698C169.075 225.133 169.049 224.577 168.998 224.03C168.963 223.466 168.921 223.021 168.869 222.696L167.227 222.337V221.49L170.665 220.541L171.101 220.952L170.973 222.311L171.05 222.337C171.648 221.687 172.238 221.217 172.82 220.926C173.401 220.635 174.034 220.49 174.718 220.49C175.351 220.49 175.941 220.652 176.488 220.977C177.053 221.285 177.506 221.764 177.848 222.414C178.207 223.064 178.387 223.893 178.387 224.902V227.75C178.387 228.366 178.395 228.922 178.412 229.417C178.447 229.913 178.489 230.247 178.541 230.418L180.131 230.803L180.054 231.726H174.898L174.847 230.803L176.335 230.418C176.352 230.281 176.369 230.11 176.386 229.905C176.403 229.7 176.411 229.443 176.411 229.135C176.429 228.81 176.437 228.408 176.437 227.93V225.159C176.437 224.389 176.3 223.782 176.027 223.338C175.77 222.876 175.445 222.551 175.052 222.363C174.658 222.157 174.257 222.055 173.846 222.055C173.282 222.055 172.752 222.2 172.256 222.491C171.777 222.765 171.366 223.149 171.024 223.645V227.493C171.024 228.28 171.033 228.922 171.05 229.417C171.084 229.896 171.118 230.23 171.152 230.418L172.743 230.803L172.666 231.726H167.407ZM186.699 237.575C185.125 237.575 183.877 237.319 182.953 236.806C182.03 236.293 181.568 235.609 181.568 234.753C181.568 234.172 181.799 233.633 182.261 233.137C182.722 232.641 183.466 232.137 184.492 231.624L185.467 231.829C184.903 232.154 184.467 232.53 184.159 232.958C183.851 233.402 183.697 233.873 183.697 234.369C183.697 235.053 183.971 235.583 184.518 235.959C185.082 236.335 185.844 236.524 186.801 236.524C187.913 236.524 188.811 236.284 189.495 235.805C190.179 235.326 190.521 234.711 190.521 233.958C190.521 233.377 190.307 232.941 189.88 232.65C189.469 232.376 188.785 232.205 187.827 232.137L185.082 231.906L184.698 231.803C184.065 231.803 183.526 231.641 183.081 231.316C182.654 230.974 182.44 230.563 182.44 230.084C182.44 229.623 182.662 229.169 183.107 228.725C183.552 228.28 184.167 227.887 184.954 227.545L185.288 228.058C184.963 228.28 184.723 228.485 184.569 228.674C184.415 228.845 184.339 229.016 184.339 229.187C184.339 229.426 184.441 229.631 184.646 229.802C184.869 229.973 185.177 230.076 185.57 230.11L188.879 230.444C190.059 230.563 190.957 230.863 191.573 231.342C192.189 231.82 192.496 232.504 192.496 233.394C192.496 234.181 192.24 234.89 191.727 235.523C191.214 236.156 190.521 236.652 189.649 237.011C188.777 237.387 187.793 237.575 186.699 237.575ZM186.904 228.545C185.997 228.545 185.185 228.383 184.467 228.058C183.766 227.733 183.218 227.288 182.825 226.724C182.432 226.142 182.235 225.484 182.235 224.749C182.235 223.945 182.44 223.226 182.851 222.594C183.261 221.944 183.817 221.439 184.518 221.08C185.219 220.704 186.006 220.516 186.878 220.516C187.75 220.516 188.529 220.687 189.213 221.029C189.914 221.371 190.461 221.85 190.855 222.465C191.248 223.064 191.445 223.748 191.445 224.518C191.445 225.27 191.239 225.954 190.829 226.57C190.436 227.186 189.897 227.673 189.213 228.032C188.529 228.374 187.759 228.545 186.904 228.545ZM187.032 227.519C187.733 227.519 188.289 227.263 188.7 226.749C189.11 226.236 189.315 225.552 189.315 224.697C189.315 223.739 189.084 222.97 188.623 222.388C188.178 221.807 187.588 221.516 186.853 221.516C186.151 221.516 185.578 221.79 185.134 222.337C184.689 222.884 184.467 223.594 184.467 224.466C184.467 225.373 184.698 226.108 185.159 226.673C185.638 227.237 186.263 227.519 187.032 227.519ZM192.984 222.363L189.931 222.157L188.931 221.131L192.984 220.721V222.363ZM199.705 231.726L199.628 230.751L201.116 230.392C201.133 230.324 201.15 230.179 201.167 229.956C201.184 229.717 201.193 229.341 201.193 228.827C201.21 228.314 201.219 227.622 201.219 226.749L201.244 221.542C201.244 220.687 201.236 220.02 201.219 219.541C201.202 219.045 201.184 218.686 201.167 218.463C201.167 218.224 201.159 218.079 201.142 218.027L199.551 217.642L199.628 216.668H205.092C206.786 216.668 208.102 217.044 209.043 217.796C209.984 218.532 210.454 219.601 210.454 221.003C210.454 221.961 210.206 222.79 209.71 223.491C209.231 224.193 208.581 224.74 207.76 225.133C206.939 225.51 206.024 225.698 205.015 225.698C204.639 225.698 204.28 225.681 203.938 225.646C203.613 225.595 203.305 225.544 203.014 225.492V224.107C203.408 224.227 203.75 224.312 204.041 224.364C204.348 224.415 204.648 224.441 204.938 224.441C205.947 224.441 206.734 224.193 207.299 223.697C207.863 223.184 208.145 222.397 208.145 221.337C208.145 220.122 207.829 219.233 207.196 218.669C206.563 218.087 205.768 217.796 204.81 217.796H203.451C203.451 217.899 203.442 218.138 203.425 218.515C203.425 218.891 203.416 219.344 203.399 219.874C203.399 220.387 203.399 220.943 203.399 221.542L203.425 226.749C203.425 227.622 203.433 228.314 203.451 228.827C203.468 229.323 203.485 229.691 203.502 229.931C203.519 230.153 203.527 230.298 203.527 230.367L205.657 230.7L205.58 231.726H199.705ZM212.25 231.726L212.198 230.777L213.866 230.418C213.9 230.247 213.926 229.965 213.943 229.571C213.96 229.178 213.969 228.656 213.969 228.007C213.986 227.357 213.994 226.561 213.994 225.621V222.414C213.994 221.764 213.986 221.097 213.969 220.413C213.969 219.729 213.96 219.088 213.943 218.489C213.943 217.873 213.934 217.352 213.917 216.924C213.917 216.479 213.909 216.189 213.892 216.052L211.993 215.795L211.942 214.974L215.61 213.923L216.098 214.282C216.081 215 216.064 215.718 216.047 216.437C216.029 217.155 216.012 217.95 215.995 218.822C215.995 219.695 215.995 220.747 215.995 221.978L215.97 226.108C215.97 227.117 215.978 228.032 215.995 228.853C216.029 229.657 216.064 230.179 216.098 230.418L217.765 230.777L217.714 231.726H212.25ZM223.46 231.932C222.776 231.932 222.169 231.795 221.639 231.521C221.109 231.247 220.69 230.897 220.382 230.469C220.091 230.042 219.946 229.597 219.946 229.135C219.946 228.554 220.134 228.075 220.51 227.699C220.887 227.322 221.502 226.997 222.357 226.724L226.257 225.416V224.107C226.257 223.68 226.128 223.295 225.872 222.953C225.615 222.594 225.273 222.311 224.846 222.106C224.418 221.901 223.939 221.798 223.409 221.798C222.982 221.798 222.691 221.892 222.537 222.081C222.383 222.252 222.289 222.602 222.255 223.132L222.203 224.21C221.588 224.347 221.066 224.329 220.639 224.158C220.211 223.97 219.997 223.671 219.997 223.261C219.997 222.97 220.117 222.679 220.356 222.388C220.613 222.098 220.946 221.824 221.357 221.567C221.767 221.294 222.212 221.063 222.691 220.875C223.17 220.687 223.64 220.558 224.102 220.49C225.367 220.49 226.376 220.823 227.129 221.49C227.899 222.157 228.292 223.03 228.309 224.107L228.258 228.417C228.258 228.742 228.266 229.058 228.283 229.366C228.318 229.674 228.36 229.905 228.412 230.059L230.053 230.367V231.162L228.796 231.624C228.557 231.709 228.335 231.778 228.129 231.829C227.924 231.897 227.753 231.932 227.616 231.932C227.086 231.932 226.744 231.632 226.59 231.034L226.308 230.033H226.693C226.128 230.666 225.581 231.145 225.051 231.47C224.538 231.778 224.008 231.932 223.46 231.932ZM224.153 230.418C224.546 230.418 224.914 230.332 225.256 230.161C225.598 229.973 225.932 229.691 226.257 229.315V226.621L223.383 227.391C222.973 227.493 222.674 227.656 222.486 227.878C222.315 228.101 222.229 228.383 222.229 228.725C222.229 229.152 222.417 229.546 222.793 229.905C223.187 230.247 223.64 230.418 224.153 230.418ZM239.443 230.136C239.118 230.7 238.673 231.145 238.109 231.47C237.544 231.778 236.954 231.932 236.339 231.932C235.295 231.932 234.44 231.615 233.773 230.982C233.106 230.35 232.773 229.4 232.773 228.135L232.85 222.004H231.054V221.465L234.363 218.463H234.851L234.799 221.414L234.774 227.724C234.774 228.614 234.962 229.272 235.338 229.7C235.731 230.127 236.279 230.341 236.98 230.341C237.373 230.341 237.732 230.264 238.057 230.11C238.399 229.956 238.707 229.751 238.981 229.494L239.443 230.136ZM233.876 222.004V220.721H238.673V222.004H233.876ZM245.856 231.726H240.187L240.11 230.803L241.7 230.418C241.717 230.247 241.726 230.067 241.726 229.879C241.743 229.674 241.752 229.435 241.752 229.161C241.752 228.87 241.752 228.528 241.752 228.135C241.752 227.724 241.752 227.228 241.752 226.647L241.726 222.029V219.105C241.726 218.01 241.897 217.069 242.239 216.283C242.581 215.496 243.06 214.889 243.676 214.461C244.291 214.034 245.01 213.82 245.83 213.82C246.532 213.82 247.113 213.974 247.575 214.282C248.037 214.59 248.268 214.966 248.268 215.411C248.268 215.65 248.182 215.847 248.011 216.001C247.857 216.137 247.66 216.206 247.421 216.206C246.993 216.206 246.592 216.018 246.215 215.641L245.035 214.513L245.651 214.667C245.018 214.667 244.531 214.992 244.189 215.641C243.847 216.291 243.676 217.206 243.676 218.386V220.747L243.701 222.029L243.727 226.442C243.727 227.177 243.735 227.921 243.753 228.674C243.77 229.426 243.787 230.008 243.804 230.418L245.907 230.751L245.856 231.726ZM239.879 222.029V221.183L241.726 220.747H243.624H246.523V222.029H239.879ZM253.527 231.932C252.415 231.932 251.44 231.692 250.602 231.213C249.781 230.734 249.14 230.067 248.678 229.212C248.216 228.34 247.985 227.348 247.985 226.236C247.985 225.073 248.242 224.064 248.755 223.209C249.268 222.354 249.952 221.687 250.807 221.208C251.662 220.729 252.603 220.49 253.629 220.49C254.69 220.49 255.613 220.729 256.4 221.208C257.204 221.67 257.819 222.329 258.247 223.184C258.692 224.022 258.914 225.005 258.914 226.134C258.914 227.211 258.674 228.186 258.196 229.058C257.717 229.931 257.067 230.632 256.246 231.162C255.442 231.675 254.536 231.932 253.527 231.932ZM253.783 230.726C254.365 230.726 254.869 230.555 255.297 230.213C255.724 229.854 256.058 229.366 256.297 228.75C256.537 228.118 256.656 227.399 256.656 226.596C256.656 225.125 256.349 223.936 255.733 223.03C255.134 222.106 254.339 221.644 253.347 221.644C252.423 221.644 251.68 222.029 251.115 222.799C250.568 223.568 250.294 224.586 250.294 225.852C250.294 226.809 250.44 227.656 250.73 228.391C251.038 229.127 251.457 229.7 251.987 230.11C252.518 230.521 253.116 230.726 253.783 230.726ZM260.812 231.726L260.735 230.803L262.326 230.418C262.343 230.332 262.36 230.179 262.377 229.956C262.394 229.734 262.403 229.435 262.403 229.058C262.42 228.682 262.428 228.22 262.428 227.673L262.454 225.672C262.454 225.108 262.428 224.552 262.377 224.005C262.343 223.457 262.3 223.021 262.249 222.696L260.607 222.337V221.49L264.045 220.541L264.404 220.9L264.301 223.055L264.378 223.081C264.891 222.089 265.413 221.422 265.943 221.08C266.473 220.721 266.969 220.541 267.431 220.541C267.824 220.541 268.149 220.644 268.406 220.849C268.679 221.037 268.816 221.328 268.816 221.721C268.816 222.132 268.671 222.448 268.38 222.671C268.106 222.876 267.756 222.978 267.328 222.978C267.02 222.978 266.721 222.91 266.43 222.773C266.157 222.636 265.892 222.448 265.635 222.209L266.097 222.363C265.772 222.568 265.464 222.859 265.173 223.235C264.883 223.594 264.618 224.047 264.378 224.595L264.404 226.98C264.421 227.408 264.438 227.853 264.455 228.314C264.472 228.776 264.489 229.195 264.506 229.571C264.524 229.931 264.541 230.213 264.558 230.418L266.79 230.751L266.738 231.726H260.812ZM270.125 231.726L270.073 230.803L271.664 230.418C271.681 230.298 271.689 230.144 271.689 229.956C271.707 229.768 271.724 229.494 271.741 229.135C271.758 228.776 271.766 228.289 271.766 227.673L271.792 225.672C271.809 225.313 271.801 224.945 271.766 224.569C271.749 224.193 271.724 223.842 271.689 223.517C271.655 223.175 271.621 222.901 271.587 222.696L269.945 222.337V221.49L273.383 220.541L273.819 220.952L273.69 222.337L273.767 222.363C274.298 221.696 274.845 221.217 275.409 220.926C275.991 220.635 276.581 220.49 277.179 220.49C277.778 220.49 278.359 220.652 278.924 220.977C279.488 221.302 279.95 221.798 280.309 222.465C280.685 223.132 280.873 223.987 280.873 225.031L280.899 227.75C280.899 228.366 280.908 228.922 280.925 229.417C280.959 229.896 281.002 230.23 281.053 230.418L282.592 230.803L282.515 231.726H277.513L277.436 230.803L278.847 230.418C278.864 230.281 278.881 230.11 278.898 229.905C278.915 229.7 278.924 229.443 278.924 229.135C278.941 228.81 278.949 228.408 278.949 227.93L278.924 225.108C278.924 224.372 278.804 223.782 278.565 223.338C278.342 222.893 278.043 222.568 277.667 222.363C277.291 222.157 276.889 222.055 276.461 222.055C275.931 222.055 275.435 222.183 274.973 222.44C274.511 222.696 274.101 223.098 273.742 223.645V227.493C273.742 228.28 273.75 228.922 273.767 229.417C273.802 229.896 273.836 230.23 273.87 230.418L275.384 230.803L275.307 231.726H270.125ZM284.593 231.726L284.516 230.803L285.979 230.418C285.996 230.281 286.004 230.11 286.004 229.905C286.021 229.7 286.038 229.443 286.056 229.135C286.073 228.81 286.081 228.408 286.081 227.93V225.133C286.081 224.381 285.953 223.782 285.696 223.338C285.44 222.893 285.115 222.568 284.722 222.363C284.345 222.157 283.96 222.055 283.567 222.055C282.986 222.055 282.447 222.2 281.951 222.491C281.455 222.782 281.01 223.226 280.617 223.825L280.13 222.876C280.728 222.055 281.361 221.456 282.028 221.08C282.712 220.687 283.43 220.49 284.183 220.49C284.901 220.49 285.551 220.661 286.133 221.003C286.714 221.345 287.176 221.841 287.518 222.491C287.86 223.141 288.031 223.928 288.031 224.851V227.75C288.031 228.366 288.039 228.922 288.057 229.417C288.091 229.896 288.125 230.23 288.159 230.418L289.75 230.803L289.698 231.726H284.593Z" fill="black"/>
<g clip-path="url(#clip0_27_2)">
<path d="M97.656 84.8707L97.0085 85.2447L68.9402 101.45L68.2917 101.824L67.6433 101.45L39.5759 85.2447L38.9275 84.8707V50.9634L39.5759 50.5884L67.6433 34.3834L68.2917 34.0093L68.9402 34.3834L97.0085 50.5884L97.656 50.9634V84.8707Z" stroke="#FAFFFF" stroke-width="2.59283"/>
<path d="M80.816 75.1471L80.1676 75.5221L68.9401 82.0035L68.2916 82.3776L67.6442 82.0035L56.4166 75.5221L55.7682 75.1471V60.6862L56.4166 60.3121L67.6442 53.8297L68.2916 53.4557L68.9401 53.8297L80.1676 60.3121L80.816 60.6862V75.1471Z" fill="#006666" fill-opacity="0.7" stroke="#FAFFFF" stroke-width="2.59283"/>
<path d="M68.1787 68.4028L68.1787 100.813" stroke="#FAFFFF" stroke-width="2.59283" stroke-linecap="square"/>
<path d="M96.3601 51.7117L68.2919 67.9168L40.2237 51.7117" stroke="#FAFFFF" stroke-width="2.59283" stroke-linecap="square"/>
<path d="M84.6984 58.4434V77.3887L68.2912 86.8604L51.8849 77.3878V58.4444L68.2912 48.9717L84.6984 58.4434Z" stroke="#001A1A" stroke-width="6.48206"/>
<path d="M89.2365 80.0089L88.5881 80.3829L68.9396 91.7266L68.2922 92.1006L67.6437 91.7266L47.9963 80.3829L47.3478 80.0089V55.8243L47.9963 55.4503L67.6437 44.1065L68.2922 43.7325L68.9396 44.1065L88.5881 55.4503L89.2365 55.8243V80.0089Z" stroke="#FAFFFF" stroke-width="2.59283"/>
</g>
<g filter="url(#filter1_d_27_2)">
<mask id="path-8-outside-1_27_2" maskUnits="userSpaceOnUse" x="107.943" y="46.2654" width="207" height="44" fill="black">
<rect fill="white" x="107.943" y="46.2654" width="207" height="44"/>
<path d="M126.415 72.3482C127.635 73.6492 128.448 74.9096 128.855 76.1293C129.302 77.349 129.526 78.8533 129.526 80.6423C129.526 83.285 128.712 85.3788 127.086 86.9238C125.46 88.4281 122.838 89.1802 119.219 89.1802C115.641 89.1802 113.019 88.4281 111.352 86.9238C109.726 85.3788 108.913 83.285 108.913 80.6423V75.4585H113.181V80.8862C113.181 82.2685 113.669 83.3866 114.645 84.2404C115.662 85.0942 117.186 85.5211 119.219 85.5211C121.252 85.5211 122.756 85.0942 123.732 84.2404C124.748 83.3866 125.257 82.2685 125.257 80.8862C125.257 79.6258 125.114 78.5687 124.83 77.7149C124.586 76.8611 123.956 75.9464 122.939 74.9706L112.206 64.4811C110.945 63.1801 110.071 61.9197 109.583 60.7C109.136 59.4803 108.913 57.9963 108.913 56.248C108.913 53.6053 109.746 51.5318 111.413 50.0275C113.08 48.4825 115.641 47.7101 119.097 47.7101C122.512 47.7101 124.992 48.4825 126.537 50.0275C128.123 51.5318 128.916 53.6053 128.916 56.248V61.4318H124.647V56.0041C124.647 54.5811 124.179 53.463 123.244 52.6499C122.309 51.7961 120.866 51.3692 118.914 51.3692C116.963 51.3692 115.519 51.7961 114.584 52.6499C113.649 53.463 113.181 54.5811 113.181 56.0041C113.181 57.2645 113.303 58.3215 113.547 59.1753C113.832 60.0291 114.483 60.9236 115.499 61.8587L126.415 72.3482ZM156.362 52.284H148.434V88.2654H144.165V52.284H136.237V48.6248H156.362V52.284ZM163.659 48.6248H167.928V80.6423C167.928 82.0246 168.233 83.1833 168.843 84.1184C169.453 85.0535 170.693 85.5211 172.563 85.5211C173.864 85.5211 175.063 85.1958 176.161 84.5453C177.259 83.8542 178.133 83.041 178.783 82.1059C179.475 81.1301 179.82 80.2357 179.82 79.4225V48.6248H184.089V88.2654H182.26L180.674 84.3624C179.82 85.7447 178.682 86.9034 177.259 87.8385C175.876 88.733 174.331 89.1802 172.624 89.1802C170.428 89.1802 168.66 88.8143 167.318 88.0825C166.017 87.31 165.082 86.2732 164.513 84.9722C163.944 83.6712 163.659 82.2279 163.659 80.6423V48.6248ZM196.31 88.2654V48.6248H206.129C209.381 48.6248 211.8 49.3973 213.386 50.9423C215.012 52.4466 215.825 54.5201 215.825 57.1628V79.7275C215.825 82.3702 215.033 84.464 213.447 86.009C211.861 87.5133 209.422 88.2654 206.129 88.2654H196.31ZM211.556 57.1628C211.556 55.6585 211.089 54.4795 210.154 53.6257C209.259 52.7312 207.918 52.284 206.129 52.284H200.579V84.6063H206.129C207.958 84.6063 209.32 84.1794 210.215 83.3256C211.109 82.4312 211.556 81.2318 211.556 79.7275V57.1628ZM235.639 88.2654H225.271V84.6063H228.32V52.284H225.271V48.6248H235.639V52.284H232.589V84.6063H235.639V88.2654ZM245.37 48.6248H249.639V80.6423C249.639 82.0246 249.944 83.1833 250.554 84.1184C251.164 85.0535 252.404 85.5211 254.274 85.5211C255.575 85.5211 256.774 85.1958 257.872 84.5453C258.97 83.8542 259.844 83.041 260.494 82.1059C261.186 81.1301 261.531 80.2357 261.531 79.4225V48.6248H265.8V88.2654H263.971L262.385 84.3624C261.531 85.7447 260.393 86.9034 258.97 87.8385C257.587 88.733 256.042 89.1802 254.335 89.1802C252.139 89.1802 250.371 88.8143 249.029 88.0825C247.728 87.31 246.793 86.2732 246.224 84.9722C245.655 83.6712 245.37 82.2279 245.37 80.6423V48.6248ZM278.021 88.2654V48.6248H279.851L281.375 52.5279C282.188 51.1049 283.286 49.9462 284.669 49.0517C286.051 48.1573 287.576 47.7101 289.242 47.7101C291.438 47.7101 293.166 48.1166 294.426 48.9298C295.687 49.7429 296.581 50.8203 297.11 52.162C297.963 50.861 299.041 49.8039 300.342 48.9908C301.683 48.137 303.167 47.7101 304.794 47.7101C306.949 47.7101 308.636 48.0963 309.856 48.8688C311.116 49.6006 312.01 50.617 312.539 51.9181C313.108 53.1784 313.393 54.6218 313.393 56.248V88.2654H309.124V56.248C309.124 54.8657 308.839 53.707 308.27 52.7719C307.701 51.8367 306.522 51.3692 304.733 51.3692C303.554 51.3692 302.436 51.7148 301.379 52.4059C300.321 53.0565 299.468 53.8696 298.817 54.8454C298.167 55.7805 297.841 56.6546 297.841 57.4677V88.2654H293.572V56.248C293.572 54.8657 293.288 53.707 292.719 52.7719C292.149 51.8367 290.97 51.3692 289.181 51.3692C288.002 51.3692 286.884 51.6944 285.827 52.345C284.77 52.9955 283.916 53.7883 283.266 54.7234C282.615 55.6179 282.29 56.4716 282.29 57.2848V88.2654H278.021Z"/>
</mask>
<path d="M126.415 72.3482C127.635 73.6492 128.448 74.9096 128.855 76.1293C129.302 77.349 129.526 78.8533 129.526 80.6423C129.526 83.285 128.712 85.3788 127.086 86.9238C125.46 88.4281 122.838 89.1802 119.219 89.1802C115.641 89.1802 113.019 88.4281 111.352 86.9238C109.726 85.3788 108.913 83.285 108.913 80.6423V75.4585H113.181V80.8862C113.181 82.2685 113.669 83.3866 114.645 84.2404C115.662 85.0942 117.186 85.5211 119.219 85.5211C121.252 85.5211 122.756 85.0942 123.732 84.2404C124.748 83.3866 125.257 82.2685 125.257 80.8862C125.257 79.6258 125.114 78.5687 124.83 77.7149C124.586 76.8611 123.956 75.9464 122.939 74.9706L112.206 64.4811C110.945 63.1801 110.071 61.9197 109.583 60.7C109.136 59.4803 108.913 57.9963 108.913 56.248C108.913 53.6053 109.746 51.5318 111.413 50.0275C113.08 48.4825 115.641 47.7101 119.097 47.7101C122.512 47.7101 124.992 48.4825 126.537 50.0275C128.123 51.5318 128.916 53.6053 128.916 56.248V61.4318H124.647V56.0041C124.647 54.5811 124.179 53.463 123.244 52.6499C122.309 51.7961 120.866 51.3692 118.914 51.3692C116.963 51.3692 115.519 51.7961 114.584 52.6499C113.649 53.463 113.181 54.5811 113.181 56.0041C113.181 57.2645 113.303 58.3215 113.547 59.1753C113.832 60.0291 114.483 60.9236 115.499 61.8587L126.415 72.3482ZM156.362 52.284H148.434V88.2654H144.165V52.284H136.237V48.6248H156.362V52.284ZM163.659 48.6248H167.928V80.6423C167.928 82.0246 168.233 83.1833 168.843 84.1184C169.453 85.0535 170.693 85.5211 172.563 85.5211C173.864 85.5211 175.063 85.1958 176.161 84.5453C177.259 83.8542 178.133 83.041 178.783 82.1059C179.475 81.1301 179.82 80.2357 179.82 79.4225V48.6248H184.089V88.2654H182.26L180.674 84.3624C179.82 85.7447 178.682 86.9034 177.259 87.8385C175.876 88.733 174.331 89.1802 172.624 89.1802C170.428 89.1802 168.66 88.8143 167.318 88.0825C166.017 87.31 165.082 86.2732 164.513 84.9722C163.944 83.6712 163.659 82.2279 163.659 80.6423V48.6248ZM196.31 88.2654V48.6248H206.129C209.381 48.6248 211.8 49.3973 213.386 50.9423C215.012 52.4466 215.825 54.5201 215.825 57.1628V79.7275C215.825 82.3702 215.033 84.464 213.447 86.009C211.861 87.5133 209.422 88.2654 206.129 88.2654H196.31ZM211.556 57.1628C211.556 55.6585 211.089 54.4795 210.154 53.6257C209.259 52.7312 207.918 52.284 206.129 52.284H200.579V84.6063H206.129C207.958 84.6063 209.32 84.1794 210.215 83.3256C211.109 82.4312 211.556 81.2318 211.556 79.7275V57.1628ZM235.639 88.2654H225.271V84.6063H228.32V52.284H225.271V48.6248H235.639V52.284H232.589V84.6063H235.639V88.2654ZM245.37 48.6248H249.639V80.6423C249.639 82.0246 249.944 83.1833 250.554 84.1184C251.164 85.0535 252.404 85.5211 254.274 85.5211C255.575 85.5211 256.774 85.1958 257.872 84.5453C258.97 83.8542 259.844 83.041 260.494 82.1059C261.186 81.1301 261.531 80.2357 261.531 79.4225V48.6248H265.8V88.2654H263.971L262.385 84.3624C261.531 85.7447 260.393 86.9034 258.97 87.8385C257.587 88.733 256.042 89.1802 254.335 89.1802C252.139 89.1802 250.371 88.8143 249.029 88.0825C247.728 87.31 246.793 86.2732 246.224 84.9722C245.655 83.6712 245.37 82.2279 245.37 80.6423V48.6248ZM278.021 88.2654V48.6248H279.851L281.375 52.5279C282.188 51.1049 283.286 49.9462 284.669 49.0517C286.051 48.1573 287.576 47.7101 289.242 47.7101C291.438 47.7101 293.166 48.1166 294.426 48.9298C295.687 49.7429 296.581 50.8203 297.11 52.162C297.963 50.861 299.041 49.8039 300.342 48.9908C301.683 48.137 303.167 47.7101 304.794 47.7101C306.949 47.7101 308.636 48.0963 309.856 48.8688C311.116 49.6006 312.01 50.617 312.539 51.9181C313.108 53.1784 313.393 54.6218 313.393 56.248V88.2654H309.124V56.248C309.124 54.8657 308.839 53.707 308.27 52.7719C307.701 51.8367 306.522 51.3692 304.733 51.3692C303.554 51.3692 302.436 51.7148 301.379 52.4059C300.321 53.0565 299.468 53.8696 298.817 54.8454C298.167 55.7805 297.841 56.6546 297.841 57.4677V88.2654H293.572V56.248C293.572 54.8657 293.288 53.707 292.719 52.7719C292.149 51.8367 290.97 51.3692 289.181 51.3692C288.002 51.3692 286.884 51.6944 285.827 52.345C284.77 52.9955 283.916 53.7883 283.266 54.7234C282.615 55.6179 282.29 56.4716 282.29 57.2848V88.2654H278.021Z" fill="white"/>
<path d="M126.415 72.3482L127.009 71.7921C126.999 71.7818 126.989 71.7717 126.979 71.7619L126.415 72.3482ZM128.855 76.1293L128.083 76.3865C128.086 76.3941 128.089 76.4017 128.091 76.4092L128.855 76.1293ZM127.086 86.9238L127.638 87.5207L127.646 87.5133L127.086 86.9238ZM111.352 86.9238L110.792 87.5133C110.797 87.5181 110.802 87.5228 110.807 87.5274L111.352 86.9238ZM108.913 75.4585V74.6453C108.463 74.6453 108.099 75.0094 108.099 75.4585H108.913ZM113.181 75.4585H113.995C113.995 75.0094 113.631 74.6453 113.181 74.6453V75.4585ZM114.645 84.2404L114.11 84.8523C114.114 84.8559 114.118 84.8595 114.122 84.863L114.645 84.2404ZM123.732 84.2404L123.209 83.6178C123.205 83.6213 123.201 83.6248 123.197 83.6284L123.732 84.2404ZM124.83 77.7149L124.048 77.9383C124.051 77.9497 124.055 77.9609 124.058 77.9721L124.83 77.7149ZM122.939 74.9706L122.371 75.5522L122.376 75.5572L122.939 74.9706ZM112.206 64.4811L111.622 65.0469C111.627 65.0522 111.632 65.0574 111.637 65.0626L112.206 64.4811ZM109.583 60.7L108.82 60.9799C108.823 60.9873 108.825 60.9947 108.828 61.002L109.583 60.7ZM111.413 50.0275L111.958 50.6312L111.966 50.6239L111.413 50.0275ZM126.537 50.0275L125.962 50.6025C125.967 50.6075 125.972 50.6125 125.978 50.6174L126.537 50.0275ZM128.916 61.4318V62.2449C129.365 62.2449 129.729 61.8809 129.729 61.4318H128.916ZM124.647 61.4318H123.834C123.834 61.8809 124.198 62.2449 124.647 62.2449V61.4318ZM123.244 52.6499L122.696 53.2504C122.701 53.2548 122.706 53.2592 122.711 53.2635L123.244 52.6499ZM114.584 52.6499L115.118 53.2635C115.123 53.2592 115.128 53.2548 115.132 53.2504L114.584 52.6499ZM113.547 59.1753L112.766 59.3987C112.769 59.4101 112.772 59.4213 112.776 59.4325L113.547 59.1753ZM115.499 61.8587L116.062 61.2724C116.058 61.2683 116.054 61.2643 116.049 61.2603L115.499 61.8587ZM126.415 72.3482L125.822 72.9044C126.991 74.1508 127.725 75.3125 128.083 76.3865L128.855 76.1293L129.626 75.8722C129.171 74.5068 128.279 73.1477 127.009 71.7921L126.415 72.3482ZM128.855 76.1293L128.091 76.4092C128.496 77.5125 128.712 78.9154 128.712 80.6423H129.526H130.339C130.339 78.7913 130.108 77.1856 129.618 75.8494L128.855 76.1293ZM129.526 80.6423H128.712C128.712 83.1052 127.962 84.9701 126.526 86.3342L127.086 86.9238L127.646 87.5133C129.463 85.7875 130.339 83.4648 130.339 80.6423H129.526ZM127.086 86.9238L126.534 86.3268C125.129 87.6269 122.755 88.3671 119.219 88.3671V89.1802V89.9934C122.92 89.9934 125.791 89.2292 127.638 87.5207L127.086 86.9238ZM119.219 89.1802V88.3671C115.729 88.3671 113.347 87.6291 111.897 86.3201L111.352 86.9238L110.807 87.5274C112.69 89.227 115.553 89.9934 119.219 89.9934V89.1802ZM111.352 86.9238L111.912 86.3342C110.476 84.9701 109.726 83.1052 109.726 80.6423H108.913H108.099C108.099 83.4648 108.975 85.7875 110.792 87.5133L111.352 86.9238ZM108.913 80.6423H109.726V75.4585H108.913H108.099V80.6423H108.913ZM108.913 75.4585V76.2716H113.181V75.4585V74.6453H108.913V75.4585ZM113.181 75.4585H112.368V80.8862H113.181H113.995V75.4585H113.181ZM113.181 80.8862H112.368C112.368 82.4854 112.945 83.8329 114.11 84.8523L114.645 84.2404L115.181 83.6284C114.394 82.9403 113.995 82.0516 113.995 80.8862H113.181ZM114.645 84.2404L114.122 84.863C115.345 85.8905 117.092 86.3342 119.219 86.3342V85.5211V84.708C117.28 84.708 115.978 84.2979 115.168 83.6178L114.645 84.2404ZM119.219 85.5211V86.3342C121.342 86.3342 123.079 85.892 124.267 84.8523L123.732 84.2404L123.197 83.6284C122.433 84.2964 121.161 84.708 119.219 84.708V85.5211ZM123.732 84.2404L124.255 84.863C125.464 83.8475 126.07 82.4973 126.07 80.8862H125.257H124.443C124.443 82.0397 124.033 82.9257 123.209 83.6178L123.732 84.2404ZM125.257 80.8862H126.07C126.07 79.5706 125.922 78.4204 125.601 77.4578L124.83 77.7149L124.058 77.9721C124.307 78.7171 124.443 79.681 124.443 80.8862H125.257ZM124.83 77.7149L125.612 77.4916C125.311 76.4409 124.567 75.4064 123.502 74.384L122.939 74.9706L122.376 75.5572C123.344 76.4863 123.86 77.2814 124.048 77.9383L124.83 77.7149ZM122.939 74.9706L123.508 74.389L112.774 63.8995L112.206 64.4811L111.637 65.0626L122.371 75.5521L122.939 74.9706ZM112.206 64.4811L112.79 63.9153C111.577 62.6634 110.775 61.4899 110.338 60.398L109.583 60.7L108.828 61.002C109.367 62.3495 110.314 63.6967 111.622 65.0469L112.206 64.4811ZM109.583 60.7L110.347 60.4201C109.942 59.3151 109.726 57.9317 109.726 56.248H108.913H108.099C108.099 58.0609 108.331 59.6455 108.82 60.9799L109.583 60.7ZM108.913 56.248H109.726C109.726 53.7909 110.492 51.9538 111.958 50.6312L111.413 50.0275L110.868 49.4238C109 51.1099 108.099 53.4198 108.099 56.248H108.913ZM111.413 50.0275L111.966 50.6239C113.42 49.2756 115.743 48.5232 119.097 48.5232V47.7101V46.8969C115.54 46.8969 112.739 47.6895 110.86 49.4311L111.413 50.0275ZM119.097 47.7101V48.5232C122.415 48.5232 124.637 49.277 125.962 50.6025L126.537 50.0275L127.112 49.4525C125.348 47.6881 122.61 46.8969 119.097 46.8969V47.7101ZM126.537 50.0275L125.978 50.6174C127.368 51.9367 128.103 53.7782 128.103 56.248H128.916H129.729C129.729 53.4325 128.878 51.1269 127.097 49.4376L126.537 50.0275ZM128.916 56.248H128.103V61.4318H128.916H129.729V56.248H128.916ZM128.916 61.4318V60.6187H124.647V61.4318V62.2449H128.916V61.4318ZM124.647 61.4318H125.46V56.0041H124.647H123.834V61.4318H124.647ZM124.647 56.0041H125.46C125.46 54.3845 124.918 53.0276 123.778 52.0363L123.244 52.6499L122.711 53.2635C123.441 53.8985 123.834 54.7777 123.834 56.0041H124.647ZM123.244 52.6499L123.792 52.0494C122.644 51.0011 120.963 50.5561 118.914 50.5561V51.3692V52.1823C120.769 52.1823 121.974 52.5911 122.696 53.2504L123.244 52.6499ZM118.914 51.3692V50.5561C116.866 50.5561 115.184 51.0011 114.036 52.0494L114.584 52.6499L115.132 53.2504C115.855 52.5911 117.06 52.1823 118.914 52.1823V51.3692ZM114.584 52.6499L114.051 52.0363C112.911 53.0276 112.368 54.3845 112.368 56.0041H113.181H113.995C113.995 54.7777 114.388 53.8985 115.118 53.2635L114.584 52.6499ZM113.181 56.0041H112.368C112.368 57.3111 112.494 58.4489 112.766 59.3987L113.547 59.1753L114.329 58.952C114.113 58.1941 113.995 57.2178 113.995 56.0041H113.181ZM113.547 59.1753L112.776 59.4325C113.121 60.4686 113.88 61.4743 114.948 62.4571L115.499 61.8587L116.049 61.2603C115.085 60.3728 114.543 59.5897 114.319 58.9182L113.547 59.1753ZM115.499 61.8587L114.936 62.445L125.852 72.9345L126.415 72.3482L126.979 71.7619L116.062 61.2724L115.499 61.8587ZM156.362 52.284V53.0971C156.811 53.0971 157.175 52.7331 157.175 52.284H156.362ZM148.434 52.284V51.4708C147.985 51.4708 147.621 51.8349 147.621 52.284H148.434ZM148.434 88.2654V89.0786C148.883 89.0786 149.247 88.7145 149.247 88.2654H148.434ZM144.165 88.2654H143.352C143.352 88.7145 143.716 89.0786 144.165 89.0786V88.2654ZM144.165 52.284H144.978C144.978 51.8349 144.614 51.4708 144.165 51.4708V52.284ZM136.237 52.284H135.424C135.424 52.7331 135.788 53.0971 136.237 53.0971V52.284ZM136.237 48.6248V47.8117C135.788 47.8117 135.424 48.1758 135.424 48.6248H136.237ZM156.362 48.6248H157.175C157.175 48.1758 156.811 47.8117 156.362 47.8117V48.6248ZM156.362 52.284V51.4708H148.434V52.284V53.0971H156.362V52.284ZM148.434 52.284H147.621V88.2654H148.434H149.247V52.284H148.434ZM148.434 88.2654V87.4523H144.165V88.2654V89.0786H148.434V88.2654ZM144.165 88.2654H144.978V52.284H144.165H143.352V88.2654H144.165ZM144.165 52.284V51.4708H136.237V52.284V53.0971H144.165V52.284ZM136.237 52.284H137.05V48.6248H136.237H135.424V52.284H136.237ZM136.237 48.6248V49.438H156.362V48.6248V47.8117H136.237V48.6248ZM156.362 48.6248H155.549V52.284H156.362H157.175V48.6248H156.362ZM163.659 48.6248V47.8117C163.21 47.8117 162.846 48.1758 162.846 48.6248H163.659ZM167.928 48.6248H168.741C168.741 48.1758 168.377 47.8117 167.928 47.8117V48.6248ZM168.843 84.1184L168.162 84.5626L168.843 84.1184ZM176.161 84.5453L176.576 85.2449C176.582 85.2411 176.588 85.2373 176.594 85.2334L176.161 84.5453ZM178.783 82.1059L178.12 81.6359L178.116 81.6415L178.783 82.1059ZM179.82 48.6248V47.8117C179.371 47.8117 179.007 48.1758 179.007 48.6248H179.82ZM184.089 48.6248H184.902C184.902 48.1758 184.538 47.8117 184.089 47.8117V48.6248ZM184.089 88.2654V89.0786C184.538 89.0786 184.902 88.7145 184.902 88.2654H184.089ZM182.26 88.2654L181.506 88.5715C181.631 88.8781 181.929 89.0786 182.26 89.0786V88.2654ZM180.674 84.3624L181.427 84.0563C181.312 83.7726 181.047 83.5777 180.742 83.5521C180.437 83.5265 180.143 83.6745 179.982 83.9351L180.674 84.3624ZM177.259 87.8385L177.7 88.5212L177.705 88.5181L177.259 87.8385ZM167.318 88.0825L166.903 88.7817C166.911 88.7867 166.92 88.7916 166.929 88.7963L167.318 88.0825ZM164.513 84.9722L163.768 85.2981L163.768 85.2981L164.513 84.9722ZM163.659 48.6248V49.438H167.928V48.6248V47.8117H163.659V48.6248ZM167.928 48.6248H167.115V80.6423H167.928H168.741V48.6248H167.928ZM167.928 80.6423H167.115C167.115 82.1447 167.447 83.467 168.162 84.5626L168.843 84.1184L169.524 83.6742C169.019 82.8996 168.741 81.9045 168.741 80.6423H167.928ZM168.843 84.1184L168.162 84.5626C169.001 85.8502 170.606 86.3342 172.563 86.3342V85.5211V84.708C170.779 84.708 169.904 84.2568 169.524 83.6742L168.843 84.1184ZM172.563 85.5211V86.3342C174.007 86.3342 175.35 85.9713 176.576 85.2449L176.161 84.5453L175.746 83.8458C174.777 84.4204 173.721 84.708 172.563 84.708V85.5211ZM176.161 84.5453L176.594 85.2334C177.772 84.4922 178.73 83.6065 179.451 82.5703L178.783 82.1059L178.116 81.6415C177.536 82.4755 176.746 83.2161 175.728 83.8572L176.161 84.5453ZM178.783 82.1059L179.447 82.5759C180.192 81.5243 180.633 80.4664 180.633 79.4225H179.82H179.007C179.007 80.005 178.757 80.736 178.12 81.6359L178.783 82.1059ZM179.82 79.4225H180.633V48.6248H179.82H179.007V79.4225H179.82ZM179.82 48.6248V49.438H184.089V48.6248V47.8117H179.82V48.6248ZM184.089 48.6248H183.276V88.2654H184.089H184.902V48.6248H184.089ZM184.089 88.2654V87.4523H182.26V88.2654V89.0786H184.089V88.2654ZM182.26 88.2654L183.013 87.9594L181.427 84.0563L180.674 84.3624L179.921 84.6684L181.506 88.5715L182.26 88.2654ZM180.674 84.3624L179.982 83.9351C179.194 85.2116 178.141 86.2859 176.812 87.159L177.259 87.8385L177.705 88.5181C179.223 87.521 180.447 86.2778 181.366 84.7897L180.674 84.3624ZM177.259 87.8385L176.817 87.1559C175.571 87.9619 174.181 88.3671 172.624 88.3671V89.1802V89.9934C174.482 89.9934 176.181 89.5041 177.7 88.5212L177.259 87.8385ZM172.624 89.1802V88.3671C170.509 88.3671 168.889 88.013 167.707 87.3686L167.318 88.0825L166.929 88.7963C168.431 89.6156 170.348 89.9934 172.624 89.9934V89.1802ZM167.318 88.0825L167.733 87.3833C166.568 86.6916 165.754 85.781 165.258 84.6463L164.513 84.9722L163.768 85.2981C164.41 86.7655 165.466 87.9284 166.903 88.7817L167.318 88.0825ZM164.513 84.9722L165.258 84.6463C164.738 83.4594 164.472 82.1288 164.472 80.6423H163.659H162.846C162.846 82.3269 163.149 83.883 163.768 85.2981L164.513 84.9722ZM163.659 80.6423H164.472V48.6248H163.659H162.846V80.6423H163.659ZM196.31 88.2654H195.497C195.497 88.7145 195.861 89.0786 196.31 89.0786V88.2654ZM196.31 48.6248V47.8117C195.861 47.8117 195.497 48.1758 195.497 48.6248H196.31ZM213.386 50.9423L212.819 51.5247C212.824 51.5296 212.829 51.5344 212.834 51.5392L213.386 50.9423ZM213.447 86.009L214.007 86.5989L214.014 86.5914L213.447 86.009ZM210.154 53.6257L209.579 54.2006C209.587 54.2093 209.596 54.2178 209.605 54.2261L210.154 53.6257ZM200.579 52.284V51.4708C200.13 51.4708 199.766 51.8349 199.766 52.284H200.579ZM200.579 84.6063H199.766C199.766 85.0554 200.13 85.4195 200.579 85.4195V84.6063ZM210.215 83.3256L210.776 83.9138C210.781 83.9095 210.785 83.905 210.79 83.9006L210.215 83.3256ZM196.31 88.2654H197.123V48.6248H196.31H195.497V88.2654H196.31ZM196.31 48.6248V49.438H206.129V48.6248V47.8117H196.31V48.6248ZM206.129 48.6248V49.438C209.268 49.438 211.443 50.1846 212.819 51.5247L213.386 50.9423L213.953 50.3599C212.158 48.61 209.495 47.8117 206.129 47.8117V48.6248ZM213.386 50.9423L212.834 51.5392C214.262 52.8601 215.012 54.6993 215.012 57.1628H215.825H216.639C216.639 54.3409 215.763 52.0331 213.938 50.3454L213.386 50.9423ZM215.825 57.1628H215.012V79.7275H215.825H216.639V57.1628H215.825ZM215.825 79.7275H215.012C215.012 82.1966 214.278 84.0639 212.879 85.4266L213.447 86.009L214.014 86.5914C215.787 84.8641 216.639 82.5438 216.639 79.7275H215.825ZM213.447 86.009L212.887 85.4191C211.514 86.722 209.317 87.4523 206.129 87.4523V88.2654V89.0786C209.527 89.0786 212.209 88.3046 214.007 86.5989L213.447 86.009ZM206.129 88.2654V87.4523H196.31V88.2654V89.0786H206.129V88.2654ZM211.556 57.1628H212.37C212.37 55.4768 211.838 54.062 210.702 53.0252L210.154 53.6257L209.605 54.2261C210.34 54.8969 210.743 55.8402 210.743 57.1628H211.556ZM210.154 53.6257L210.729 53.0507C209.628 51.9499 208.043 51.4708 206.129 51.4708V52.284V53.0971C207.792 53.0971 208.891 53.5125 209.579 54.2006L210.154 53.6257ZM206.129 52.284V51.4708H200.579V52.284V53.0971H206.129V52.284ZM200.579 52.284H199.766V84.6063H200.579H201.392V52.284H200.579ZM200.579 84.6063V85.4195H206.129V84.6063V83.7932H200.579V84.6063ZM206.129 84.6063V85.4195C208.068 85.4195 209.671 84.9683 210.776 83.9138L210.215 83.3256L209.653 82.7374C208.969 83.3905 207.848 83.7932 206.129 83.7932V84.6063ZM210.215 83.3256L210.79 83.9006C211.865 82.8252 212.37 81.4036 212.37 79.7275H211.556H210.743C210.743 81.0599 210.353 82.0371 209.64 82.7506L210.215 83.3256ZM211.556 79.7275H212.37V57.1628H211.556H210.743V79.7275H211.556ZM235.639 88.2654V89.0786C236.088 89.0786 236.452 88.7145 236.452 88.2654H235.639ZM225.271 88.2654H224.458C224.458 88.7145 224.822 89.0786 225.271 89.0786V88.2654ZM225.271 84.6063V83.7932C224.822 83.7932 224.458 84.1572 224.458 84.6063H225.271ZM228.32 84.6063V85.4195C228.769 85.4195 229.133 85.0554 229.133 84.6063H228.32ZM228.32 52.284H229.133C229.133 51.8349 228.769 51.4708 228.32 51.4708V52.284ZM225.271 52.284H224.458C224.458 52.7331 224.822 53.0971 225.271 53.0971V52.284ZM225.271 48.6248V47.8117C224.822 47.8117 224.458 48.1758 224.458 48.6248H225.271ZM235.639 48.6248H236.452C236.452 48.1758 236.088 47.8117 235.639 47.8117V48.6248ZM235.639 52.284V53.0971C236.088 53.0971 236.452 52.7331 236.452 52.284H235.639ZM232.589 52.284V51.4708C232.14 51.4708 231.776 51.8349 231.776 52.284H232.589ZM232.589 84.6063H231.776C231.776 85.0554 232.14 85.4195 232.589 85.4195V84.6063ZM235.639 84.6063H236.452C236.452 84.1572 236.088 83.7932 235.639 83.7932V84.6063ZM235.639 88.2654V87.4523H225.271V88.2654V89.0786H235.639V88.2654ZM225.271 88.2654H226.084V84.6063H225.271H224.458V88.2654H225.271ZM225.271 84.6063V85.4195H228.32V84.6063V83.7932H225.271V84.6063ZM228.32 84.6063H229.133V52.284H228.32H227.507V84.6063H228.32ZM228.32 52.284V51.4708H225.271V52.284V53.0971H228.32V52.284ZM225.271 52.284H226.084V48.6248H225.271H224.458V52.284H225.271ZM225.271 48.6248V49.438H235.639V48.6248V47.8117H225.271V48.6248ZM235.639 48.6248H234.825V52.284H235.639H236.452V48.6248H235.639ZM235.639 52.284V51.4708H232.589V52.284V53.0971H235.639V52.284ZM232.589 52.284H231.776V84.6063H232.589H233.402V52.284H232.589ZM232.589 84.6063V85.4195H235.639V84.6063V83.7932H232.589V84.6063ZM235.639 84.6063H234.825V88.2654H235.639H236.452V84.6063H235.639ZM245.37 48.6248V47.8117C244.921 47.8117 244.557 48.1758 244.557 48.6248H245.37ZM249.639 48.6248H250.452C250.452 48.1758 250.088 47.8117 249.639 47.8117V48.6248ZM250.554 84.1184L249.873 84.5626L250.554 84.1184ZM257.872 84.5453L258.287 85.2449C258.293 85.2411 258.299 85.2373 258.305 85.2334L257.872 84.5453ZM260.494 82.1059L259.831 81.6359L259.827 81.6415L260.494 82.1059ZM261.531 48.6248V47.8117C261.082 47.8117 260.718 48.1758 260.718 48.6248H261.531ZM265.8 48.6248H266.613C266.613 48.1758 266.249 47.8117 265.8 47.8117V48.6248ZM265.8 88.2654V89.0786C266.249 89.0786 266.613 88.7145 266.613 88.2654H265.8ZM263.971 88.2654L263.217 88.5715C263.342 88.8781 263.64 89.0786 263.971 89.0786V88.2654ZM262.385 84.3624L263.138 84.0563C263.023 83.7726 262.758 83.5777 262.453 83.5521C262.148 83.5265 261.854 83.6745 261.693 83.9351L262.385 84.3624ZM258.97 87.8385L259.412 88.5212L259.416 88.5181L258.97 87.8385ZM249.029 88.0825L248.614 88.7817C248.623 88.7867 248.631 88.7916 248.64 88.7963L249.029 88.0825ZM246.224 84.9722L245.479 85.2981L245.479 85.2981L246.224 84.9722ZM245.37 48.6248V49.438H249.639V48.6248V47.8117H245.37V48.6248ZM249.639 48.6248H248.826V80.6423H249.639H250.452V48.6248H249.639ZM249.639 80.6423H248.826C248.826 82.1447 249.158 83.467 249.873 84.5626L250.554 84.1184L251.235 83.6742C250.73 82.8996 250.452 81.9045 250.452 80.6423H249.639ZM250.554 84.1184L249.873 84.5626C250.712 85.8502 252.317 86.3342 254.274 86.3342V85.5211V84.708C252.49 84.708 251.615 84.2568 251.235 83.6742L250.554 84.1184ZM254.274 85.5211V86.3342C255.718 86.3342 257.061 85.9713 258.287 85.2449L257.872 84.5453L257.458 83.8458C256.488 84.4204 255.432 84.708 254.274 84.708V85.5211ZM257.872 84.5453L258.305 85.2334C259.483 84.4922 260.441 83.6065 261.162 82.5703L260.494 82.1059L259.827 81.6415C259.247 82.4755 258.457 83.2161 257.439 83.8572L257.872 84.5453ZM260.494 82.1059L261.158 82.5759C261.903 81.5243 262.344 80.4664 262.344 79.4225H261.531H260.718C260.718 80.005 260.468 80.736 259.831 81.6359L260.494 82.1059ZM261.531 79.4225H262.344V48.6248H261.531H260.718V79.4225H261.531ZM261.531 48.6248V49.438H265.8V48.6248V47.8117H261.531V48.6248ZM265.8 48.6248H264.987V88.2654H265.8H266.613V48.6248H265.8ZM265.8 88.2654V87.4523H263.971V88.2654V89.0786H265.8V88.2654ZM263.971 88.2654L264.724 87.9594L263.138 84.0563L262.385 84.3624L261.632 84.6684L263.217 88.5715L263.971 88.2654ZM262.385 84.3624L261.693 83.9351C260.905 85.2116 259.852 86.2859 258.523 87.159L258.97 87.8385L259.416 88.5181C260.934 87.521 262.158 86.2778 263.077 84.7897L262.385 84.3624ZM258.97 87.8385L258.528 87.1559C257.282 87.9619 255.892 88.3671 254.335 88.3671V89.1802V89.9934C256.193 89.9934 257.893 89.5041 259.412 88.5212L258.97 87.8385ZM254.335 89.1802V88.3671C252.22 88.3671 250.6 88.013 249.419 87.3686L249.029 88.0825L248.64 88.7963C250.142 89.6156 252.059 89.9934 254.335 89.9934V89.1802ZM249.029 88.0825L249.444 87.3833C248.279 86.6916 247.465 85.781 246.969 84.6463L246.224 84.9722L245.479 85.2981C246.121 86.7655 247.177 87.9284 248.614 88.7817L249.029 88.0825ZM246.224 84.9722L246.969 84.6463C246.45 83.4594 246.183 82.1288 246.183 80.6423H245.37H244.557C244.557 82.3269 244.86 83.883 245.479 85.2981L246.224 84.9722ZM245.37 80.6423H246.183V48.6248H245.37H244.557V80.6423H245.37ZM278.021 88.2654H277.208C277.208 88.7145 277.572 89.0786 278.021 89.0786V88.2654ZM278.021 48.6248V47.8117C277.572 47.8117 277.208 48.1758 277.208 48.6248H278.021ZM279.851 48.6248L280.608 48.329C280.486 48.017 280.186 47.8117 279.851 47.8117V48.6248ZM281.375 52.5279L280.618 52.8238C280.732 53.1155 281.003 53.3159 281.316 53.3389C281.628 53.3618 281.926 53.2033 282.081 52.9313L281.375 52.5279ZM284.669 49.0517L285.11 49.7344L285.11 49.7344L284.669 49.0517ZM294.426 48.9298L294.867 48.2465L294.867 48.2465L294.426 48.9298ZM297.11 52.162L296.353 52.46C296.464 52.7427 296.724 52.9397 297.026 52.9709C297.328 53.002 297.623 52.8621 297.789 52.6081L297.11 52.162ZM300.342 48.9908L300.773 49.6803L300.778 49.6768L300.342 48.9908ZM309.856 48.8688L309.42 49.5557C309.429 49.5613 309.438 49.5667 309.447 49.572L309.856 48.8688ZM312.539 51.9181L311.786 52.2241C311.789 52.2337 311.794 52.2433 311.798 52.2527L312.539 51.9181ZM313.393 88.2654V89.0786C313.842 89.0786 314.206 88.7145 314.206 88.2654H313.393ZM309.124 88.2654H308.311C308.311 88.7145 308.675 89.0786 309.124 89.0786V88.2654ZM301.379 52.4059L301.805 53.0985C301.811 53.0946 301.817 53.0906 301.824 53.0865L301.379 52.4059ZM298.817 54.8454L299.485 55.3097C299.488 55.3053 299.491 55.3009 299.494 55.2964L298.817 54.8454ZM297.841 88.2654V89.0786C298.29 89.0786 298.655 88.7145 298.655 88.2654H297.841ZM293.572 88.2654H292.759C292.759 88.7145 293.123 89.0786 293.572 89.0786V88.2654ZM285.827 52.345L285.401 51.6524L285.401 51.6524L285.827 52.345ZM283.266 54.7234L283.923 55.2017C283.927 55.1971 283.93 55.1924 283.933 55.1878L283.266 54.7234ZM282.29 88.2654V89.0786C282.739 89.0786 283.103 88.7145 283.103 88.2654H282.29ZM278.021 88.2654H278.834V48.6248H278.021H277.208V88.2654H278.021ZM278.021 48.6248V49.438H279.851V48.6248V47.8117H278.021V48.6248ZM279.851 48.6248L279.093 48.9207L280.618 52.8238L281.375 52.5279L282.133 52.2321L280.608 48.329L279.851 48.6248ZM281.375 52.5279L282.081 52.9313C282.83 51.6218 283.837 50.5586 285.11 49.7344L284.669 49.0517L284.227 48.3691C282.736 49.3338 281.547 50.5881 280.669 52.1245L281.375 52.5279ZM284.669 49.0517L285.11 49.7344C286.359 48.9262 287.73 48.5232 289.242 48.5232V47.7101V46.8969C287.421 46.8969 285.742 47.3883 284.227 48.3691L284.669 49.0517ZM289.242 47.7101V48.5232C291.35 48.5232 292.904 48.9154 293.985 49.613L294.426 48.9298L294.867 48.2465C293.428 47.3178 291.526 46.8969 289.242 46.8969V47.7101ZM294.426 48.9298L293.985 49.613C295.109 50.3379 295.889 51.2833 296.353 52.46L297.11 52.162L297.866 51.864C297.273 50.3574 296.264 49.1479 294.867 48.2465L294.426 48.9298ZM297.11 52.162L297.789 52.6081C298.58 51.4038 299.573 50.4303 300.773 49.6803L300.342 48.9908L299.911 48.3012C298.509 49.1775 297.347 50.3181 296.43 51.7159L297.11 52.162ZM300.342 48.9908L300.778 49.6768C301.986 48.908 303.318 48.5232 304.794 48.5232V47.7101V46.8969C303.017 46.8969 301.38 47.366 299.905 48.3047L300.342 48.9908ZM304.794 47.7101V48.5232C306.865 48.5232 308.38 48.8968 309.42 49.5557L309.856 48.8688L310.291 48.1818C308.892 47.2958 307.032 46.8969 304.794 46.8969V47.7101ZM309.856 48.8688L309.447 49.572C310.558 50.217 311.328 51.0967 311.786 52.2241L312.539 51.9181L313.292 51.612C312.693 50.1374 311.674 48.9842 310.264 48.1656L309.856 48.8688ZM312.539 51.9181L311.798 52.2527C312.312 53.391 312.58 54.7171 312.58 56.248H313.393H314.206C314.206 54.5264 313.904 52.9658 313.28 51.5834L312.539 51.9181ZM313.393 56.248H312.58V88.2654H313.393H314.206V56.248H313.393ZM313.393 88.2654V87.4523H309.124V88.2654V89.0786H313.393V88.2654ZM309.124 88.2654H309.937V56.248H309.124H308.311V88.2654H309.124ZM309.124 56.248H309.937C309.937 54.7553 309.629 53.4411 308.965 52.3491L308.27 52.7719L307.575 53.1946C308.049 53.9729 308.311 54.9761 308.311 56.248H309.124ZM308.27 52.7719L308.965 52.3491C308.171 51.0462 306.619 50.5561 304.733 50.5561V51.3692V52.1823C306.425 52.1823 307.23 52.6273 307.575 53.1946L308.27 52.7719ZM304.733 51.3692V50.5561C303.384 50.5561 302.113 50.9542 300.934 51.7254L301.379 52.4059L301.824 53.0865C302.758 52.4754 303.723 52.1823 304.733 52.1823V51.3692ZM301.379 52.4059L300.952 51.7134C299.801 52.4218 298.86 53.3153 298.141 54.3943L298.817 54.8454L299.494 55.2964C300.075 54.4239 300.842 53.6912 301.805 53.0985L301.379 52.4059ZM298.817 54.8454L298.15 54.381C297.441 55.3996 297.028 56.4341 297.028 57.4677H297.841H298.655C298.655 56.8751 298.892 56.1614 299.485 55.3097L298.817 54.8454ZM297.841 57.4677H297.028V88.2654H297.841H298.655V57.4677H297.841ZM297.841 88.2654V87.4523H293.572V88.2654V89.0786H297.841V88.2654ZM293.572 88.2654H294.386V56.248H293.572H292.759V88.2654H293.572ZM293.572 56.248H294.386C294.386 54.7553 294.078 53.4411 293.413 52.3491L292.719 52.7719L292.024 53.1946C292.498 53.9729 292.759 54.9761 292.759 56.248H293.572ZM292.719 52.7719L293.413 52.3491C292.62 51.0462 291.067 50.5561 289.181 50.5561V51.3692V52.1823C290.873 52.1823 291.679 52.6273 292.024 53.1946L292.719 52.7719ZM289.181 51.3692V50.5561C287.844 50.5561 286.579 50.9274 285.401 51.6524L285.827 52.345L286.253 53.0375C287.189 52.4615 288.161 52.1823 289.181 52.1823V51.3692ZM285.827 52.345L285.401 51.6524C284.257 52.3563 283.318 53.2241 282.598 54.259L283.266 54.7234L283.933 55.1878C284.514 54.3524 285.283 53.6347 286.253 53.0375L285.827 52.345ZM283.266 54.7234L282.608 54.2451C281.892 55.2294 281.477 56.2476 281.477 57.2848H282.29H283.103C283.103 56.6957 283.338 56.0063 283.923 55.2017L283.266 54.7234ZM282.29 57.2848H281.477V88.2654H282.29H283.103V57.2848H282.29ZM282.29 88.2654V87.4523H278.021V88.2654V89.0786H282.29V88.2654Z" fill="#FAFFFF" mask="url(#path-8-outside-1_27_2)"/>
</g>
</g>
<defs>
<filter id="filter0_n_27_2" x="0.741946" y="0.366821" width="400" height="280" filterUnits="userSpaceOnUse" color-interpolation-filters="sRGB">
<feFlood flood-opacity="0" result="BackgroundImageFix"/>
<feBlend mode="normal" in="SourceGraphic" in2="BackgroundImageFix" result="shape"/>
<feTurbulence type="fractalNoise" baseFrequency="1 1" stitchTiles="stitch" numOctaves="3" result="noise" seed="8352" />
<feComponentTransfer in="noise" result="coloredNoise1">
<feFuncR type="linear" slope="2" intercept="-0.5" />
<feFuncG type="linear" slope="2" intercept="-0.5" />
<feFuncB type="linear" slope="2" intercept="-0.5" />
<feFuncA type="discrete" tableValues="1 1 1 1 1 1 1 1 1 1 1 1 1 1 1 1 1 1 1 1 1 1 1 1 1 1 1 1 1 1 1 1 1 1 1 1 1 1 1 1 1 1 1 1 1 1 1 1 1 1 1 0 0 0 0 0 0 0 0 0 0 0 0 0 0 0 0 0 0 0 0 0 0 0 0 0 0 0 0 0 0 0 0 0 0 0 0 0 0 0 0 0 0 0 0 0 0 0 0 0 "/>
</feComponentTransfer>
<feComposite operator="in" in2="shape" in="coloredNoise1" result="noise1Clipped" />
<feComponentTransfer in="noise1Clipped" result="color1">
<feFuncA type="table" tableValues="0 0.15" />
</feComponentTransfer>
<feMerge result="effect1_noise_27_2">
<feMergeNode in="shape" />
<feMergeNode in="color1" />
</feMerge>
</filter>
<filter id="filter1_d_27_2" x="108.099" y="46.8969" width="208.139" height="45.1293" filterUnits="userSpaceOnUse" color-interpolation-filters="sRGB">
<feFlood flood-opacity="0" result="BackgroundImageFix"/>
<feColorMatrix in="SourceAlpha" type="matrix" values="0 0 0 0 0 0 0 0 0 0 0 0 0 0 0 0 0 0 127 0" result="hardAlpha"/>
<feOffset dx="2.03285" dy="2.03285"/>
<feComposite in2="hardAlpha" operator="out"/>
<feColorMatrix type="matrix" values="0 0 0 0 0.98 0 0 0 0 1 0 0 0 0 1 0 0 0 0.3 0"/>
<feBlend mode="normal" in2="BackgroundImageFix" result="effect1_dropShadow_27_2"/>
<feBlend mode="normal" in="SourceGraphic" in2="effect1_dropShadow_27_2" result="shape"/>
</filter>
<linearGradient id="paint0_linear_27_2" x1="200" y1="0" x2="200" y2="280" gradientUnits="userSpaceOnUse">
<stop stop-color="#001A1A"/>
<stop offset="1" stop-color="white"/>
</linearGradient>
<clipPath id="clip0_27_2">
<rect width="71.3027" height="71.3027" fill="white" transform="translate(32.6405 32.2654)"/>
</clipPath>
</defs>
</svg>
