<svg width="100" height="100" viewBox="0 0 100 100" fill="none" xmlns="http://www.w3.org/2000/svg">
<path d="M56.4509 19.64C55.0109 19.64 53.8109 20 52.8509 20.72C51.8909 21.4 51.4109 22.5 51.4109 24.02C51.4109 24.34 51.4309 24.64 51.4709 24.92C51.5109 25.16 51.5509 25.44 51.5909 25.76L55.7909 45.02C55.8309 45.22 55.8509 45.42 55.8509 45.62C55.8509 46.38 55.4109 46.76 54.5309 46.76H52.1909V53.24H56.0309C57.1109 53.24 57.7709 53.82 58.0109 54.98L62.5109 75.68C62.8309 77.2 63.4509 78.36 64.3709 79.16C65.2909 79.96 66.5509 80.36 68.1509 80.36H73.0709V76.04H68.9309C67.8109 76.04 67.1309 75.44 66.8909 74.24L62.6909 55.04C62.4109 53.6 61.7709 52.46 60.7709 51.62C59.8109 50.78 58.5709 50.36 57.0509 50.36H56.1509V49.64H56.8709C57.9509 49.64 58.8309 49.32 59.5109 48.68C60.1909 48.04 60.5309 47.14 60.5309 45.98C60.5309 45.78 60.5309 45.6 60.5309 45.44C60.5309 45.28 60.4909 45.04 60.4109 44.72L56.2709 25.7C56.2309 25.5 56.2109 25.32 56.2109 25.16C56.2109 24.36 56.7109 23.96 57.7109 23.96H61.6109L61.6109 19.64H56.4509Z" fill="#FD3F65"/>
<path d="M43.5491 80.36C44.9891 80.36 46.1891 80 47.1491 79.28C48.1091 78.6 48.5891 77.5 48.5891 75.98C48.5891 75.66 48.5691 75.36 48.5291 75.08C48.4891 74.84 48.4491 74.56 48.4091 74.24L44.2091 54.98C44.1691 54.78 44.1491 54.58 44.1491 54.38C44.1491 53.62 44.5891 53.24 45.4691 53.24H47.8091V46.76H43.9691C42.8891 46.76 42.2291 46.18 41.9891 45.02L37.4891 24.32C37.1691 22.8 36.5491 21.64 35.6291 20.84C34.7091 20.04 33.4491 19.64 31.8491 19.64H26.9291V23.96H31.0691C32.1891 23.96 32.8691 24.56 33.1091 25.76L37.3091 44.96C37.5891 46.4 38.2291 47.54 39.2291 48.38C40.1891 49.22 41.4291 49.64 42.9491 49.64H43.8491V50.36H43.1291C42.0491 50.36 41.1691 50.68 40.4891 51.32C39.8091 51.96 39.4691 52.86 39.4691 54.02C39.4691 54.22 39.4691 54.4 39.4691 54.56C39.4691 54.72 39.5091 54.96 39.5891 55.28L43.7291 74.3C43.7691 74.5 43.7891 74.68 43.7891 74.84C43.7891 75.64 43.2891 76.04 42.2891 76.04H38.3891V80.36H43.5491Z" fill="#FD3F65"/>
<path d="M19.64 43.5491C19.64 44.9891 20 46.1891 20.72 47.1491C21.4 48.1091 22.5 48.5891 24.02 48.5891C24.34 48.5891 24.64 48.5691 24.92 48.5291C25.16 48.4891 25.44 48.4491 25.76 48.4091L45.02 44.2091C45.22 44.1691 45.42 44.1491 45.62 44.1491C46.38 44.1491 46.76 44.5891 46.76 45.4691V47.8091H53.24V43.9691C53.24 42.8891 53.82 42.2291 54.98 41.9891L75.68 37.4891C77.2 37.1691 78.36 36.5491 79.16 35.6291C79.96 34.7091 80.36 33.4491 80.36 31.8491V26.9291L76.04 26.9291V31.0691C76.04 32.1891 75.44 32.8691 74.24 33.1091L55.04 37.3091C53.6 37.5891 52.46 38.2291 51.62 39.2291C50.78 40.1891 50.36 41.4291 50.36 42.9491V43.8491H49.64V43.1291C49.64 42.0491 49.32 41.1691 48.68 40.4891C48.04 39.8091 47.14 39.4691 45.98 39.4691C45.78 39.4691 45.6 39.4691 45.44 39.4691C45.28 39.4691 45.04 39.5091 44.72 39.5891L25.7 43.7291C25.5 43.7691 25.32 43.7891 25.16 43.7891C24.36 43.7891 23.96 43.2891 23.96 42.2891V38.3891H19.64V43.5491Z" fill="#FD3F65"/>
<path d="M80.36 56.4509C80.36 55.0109 80 53.8109 79.28 52.8509C78.6 51.8909 77.5 51.4109 75.98 51.4109C75.66 51.4109 75.36 51.4309 75.08 51.4709C74.84 51.5109 74.56 51.5509 74.24 51.5909L54.98 55.7909C54.78 55.8309 54.58 55.8509 54.38 55.8509C53.62 55.8509 53.24 55.4109 53.24 54.5309V52.1909H46.76V56.0309C46.76 57.1109 46.18 57.7709 45.02 58.0109L24.32 62.5109C22.8 62.8309 21.64 63.4509 20.84 64.3709C20.04 65.2909 19.64 66.5509 19.64 68.1509V73.0709H23.96L23.96 68.9309C23.96 67.8109 24.56 67.1309 25.76 66.8909L44.96 62.6909C46.4 62.4109 47.54 61.7709 48.38 60.7709C49.22 59.8109 49.64 58.5709 49.64 57.0509V56.1509H50.36V56.8709C50.36 57.9509 50.68 58.8309 51.32 59.5109C51.96 60.1909 52.86 60.5309 54.02 60.5309C54.22 60.5309 54.4 60.5309 54.56 60.5309C54.72 60.5309 54.96 60.4909 55.28 60.4109L74.3 56.2709C74.5 56.2309 74.68 56.2109 74.84 56.2109C75.64 56.2109 76.04 56.7109 76.04 57.7109V61.6109H80.36V56.4509Z" fill="#FD3F65"/>
<circle cx="50" cy="50" r="3" stroke="#FD3F65" stroke-width="2"/>
</svg>
