<svg width="1280" height="720" viewBox="0 0 1280 720" fill="none" xmlns="http://www.w3.org/2000/svg">
<g clip-path="url(#clip0_1_3)">
<mask id="mask0_1_3" style="mask-type:luminance" maskUnits="userSpaceOnUse" x="-576" y="170" width="1986" height="387">
<path d="M-576 170.962H1410V556.032H-576V170.962Z" fill="white"/>
</mask>
<g mask="url(#mask0_1_3)">
<path d="M-682.99 231.869C-674.878 235.429 -605.916 244.924 -587.661 248.485C-569.409 252.045 -505.776 263.139 -482.194 262.726C-458.61 262.315 -352.385 278.155 -321.961 281.716C-291.537 285.278 -215.354 286.154 -174.344 285.716C-133.333 285.278 -76.542 278.155 -64.3729 281.716C-52.2038 285.278 -27.8655 288.737 -15.6943 285.819C-3.52306 282.904 35.0106 276.969 43.1269 276.969C51.2368 276.969 93.834 280.53 93.834 280.53C93.834 280.53 114.115 279.343 124.258 278.155C133.006 277.131 141.908 276.43 150.778 275.912C154.97 275.667 163.354 274.466 167.139 275.992C169.836 277.079 169.604 279.175 171.152 280.675C172.825 282.297 175.607 283.253 178.497 284.029C185.007 285.775 192.324 286.209 199.301 286.913C241.892 291.213 290.57 295.959 302.742 295.959C314.913 295.959 329.113 293.585 359.532 295.959C389.956 298.333 434.58 292.399 475.142 295.959C515.711 299.519 542.016 293.585 577.542 295.959C613.063 298.333 649.577 287.65 663.77 284.09C677.968 280.53 700.282 274.595 700.282 274.595L722.592 276.969C722.592 276.969 734.763 280.53 744.901 278.155C755.044 275.781 755.044 275.781 755.044 275.781C755.044 275.781 799.663 273.409 807.778 273.409C815.89 273.409 862.54 281.716 872.684 282.904C882.821 284.09 899.047 286.464 923.389 284.09C947.728 281.716 963.954 276.969 976.125 272.221C988.294 267.474 1000.46 261.54 1014.66 255.605C1028.8 249.696 1055.21 252.909 1061.5 251.5C1071.57 249.248 1086.81 247.407 1094 243C1102.14 238.016 1103.04 237.503 1112.5 233.5C1123.25 228.95 1129.35 221.429 1135 214.5C1142.29 205.563 1153.14 202.361 1168 202.5C1178.33 202.603 1187.12 188.901 1192.5 192.701C1195.26 194.65 1211.4 190.426 1211.4 192.701C1225.22 197.324 1262.09 197.446 1264.05 197.448C1267.31 197.454 1284.4 208.379 1287.53 209.896C1294.56 213.296 1301.64 216.665 1308.76 220C1312.71 222.84 1316.68 225.675 1320.63 228.522C1322.23 229.674 1325.64 233.342 1327.93 233.919C1332.3 235.016 1338.21 232.872 1343.33 233.066C1352.76 233.424 1369.45 244.071 1377.72 247.296C1402.06 256.793 1368.12 244.606 1475.07 282.904C1582.03 321.199 1679.93 360.23 1679.93 360.23L1255.49 529.772L-816.857 555.881L-682.99 231.869Z" fill="#49B19D"/>
</g>
<rect x="-87" y="494" width="1429" height="241" fill="#49B19D"/>
</g>
<defs>
<clipPath id="clip0_1_3">
<rect width="1280" height="720" fill="white"/>
</clipPath>
</defs>
</svg>
